<svg version="1.1" id="Layer_1" xmlns="http://www.w3.org/2000/svg" xmlns:xlink="http://www.w3.org/1999/xlink" x="0px" y="0px"
	 width="100%" viewBox="0 0 1254 1254" enable-background="new 0 0 1254 1254" xml:space="preserve">
<path fill="#FDFDFD" opacity="1.000000" stroke="none" 
	d="
M664.000000,1255.000000 
	C442.666656,1255.000000 221.833328,1255.000000 1.000000,1255.000000 
	C1.000000,837.000000 1.000000,419.000000 1.000000,1.000000 
	C419.000000,1.000000 837.000000,1.000000 1255.000000,1.000000 
	C1255.000000,419.000000 1255.000000,837.000000 1255.000000,1255.000000 
	C1058.166626,1255.000000 861.333313,1255.000000 664.000000,1255.000000 
M959.886902,1070.286987 
	C981.256104,1070.189941 1002.625244,1070.092896 1024.770020,1069.708740 
	C1024.864746,1068.313232 1024.959473,1066.917725 1025.068115,1065.316406 
	C1023.683350,1065.188843 1022.875671,1065.071411 1022.065063,1065.046143 
	C1007.878418,1064.602051 1003.742004,1060.385498 1003.731445,1046.211670 
	C1003.716980,1026.884644 1003.688965,1007.557373 1003.780151,988.230835 
	C1003.839417,975.656189 1009.736694,965.851990 1019.279663,958.280151 
	C1023.794861,954.697571 1029.176758,952.397156 1035.679932,953.964233 
	C1034.938965,955.538330 1034.329224,956.698425 1033.835205,957.905945 
	C1031.142822,964.487915 1032.713501,971.655945 1037.670898,975.548340 
	C1043.226196,979.910095 1051.609619,980.080383 1057.258667,975.946289 
	C1062.622070,972.021301 1064.595337,965.242798 1062.197754,958.497437 
	C1059.661743,951.362854 1054.150024,947.519531 1047.080200,946.092468 
	C1031.085205,942.863647 1018.320496,948.337769 1008.554199,961.199707 
	C1007.156677,963.040222 1005.876221,964.969604 1004.541626,966.857849 
	C1003.674500,960.531067 1003.873535,954.693665 1003.518738,948.890076 
	C1003.441040,947.618408 1001.235291,945.306824 1000.272522,945.435913 
	C986.976257,947.218262 973.726013,949.343750 960.150818,951.433472 
	C960.150818,952.395935 960.150818,953.919067 960.150818,955.364929 
	C973.809814,957.969727 974.414612,958.491333 977.367798,970.978210 
	C977.397217,997.634216 977.426697,1024.290161 977.015564,1051.602051 
	C974.998169,1061.788818 972.588501,1063.932739 961.951294,1065.004517 
	C957.623047,1065.440674 957.456238,1065.721558 959.886902,1070.286987 
M399.841461,641.694641 
	C400.155151,641.941223 400.468872,642.187744 400.928558,643.089233 
	C406.099274,650.006287 411.089294,657.067383 416.471588,663.815735 
	C441.719727,695.471680 469.300995,725.072327 497.746429,753.807495 
	C521.151855,777.451294 545.259521,800.442017 569.814697,822.892273 
	C589.368713,840.770142 613.208313,849.840698 639.689026,850.782654 
	C661.141296,851.545715 681.593384,846.615234 699.161316,834.070129 
	C717.802979,820.758362 735.682007,806.347961 753.535400,791.971924 
	C771.013184,777.898254 787.559692,762.636414 805.372803,749.018127 
	C834.171448,727.001099 863.575989,705.775146 889.850708,680.666016 
	C898.487793,672.412109 908.239136,664.848999 915.011902,655.231201 
	C925.049133,640.977844 931.830872,624.767273 934.978210,607.302368 
	C935.910156,602.130798 937.538025,597.084656 939.221924,592.758606 
	C942.947266,614.561829 946.569031,636.383423 950.419556,658.164490 
	C958.183105,702.080383 966.056030,745.977051 973.924927,789.874207 
	C975.052673,796.165771 977.090332,798.009460 982.032166,798.003479 
	C987.513062,797.996826 989.003967,794.289429 989.660950,789.886963 
	C991.426147,778.058289 993.238831,766.234375 994.798584,754.377869 
	C997.984375,730.161255 1001.018982,705.924805 1004.111877,681.695984 
	C1007.706787,653.534851 1011.354553,625.380371 1014.874695,597.209900 
	C1018.804443,565.761597 1022.616699,534.298584 1026.554443,502.236206 
	C1027.106201,503.692566 1027.648926,504.691895 1027.864502,505.757477 
	C1034.747681,539.788879 1041.538330,573.839233 1048.486572,607.857300 
	C1051.144287,620.869873 1054.140503,633.813538 1057.006470,646.783264 
	C1057.873657,650.707520 1058.713867,654.543335 1063.351685,656.072449 
	C1068.410034,657.740173 1071.574829,655.004700 1074.710693,651.857056 
	C1075.886719,650.676575 1077.054443,649.486938 1078.254272,648.330933 
	C1087.206909,639.705933 1096.166626,631.088257 1104.897827,622.686157 
	C1108.834229,626.436646 1113.372681,630.377686 1117.445312,634.752502 
	C1121.246460,638.835693 1125.580078,640.579285 1131.146973,640.550415 
	C1161.807983,640.391296 1192.470093,640.436157 1223.131836,640.388184 
	C1224.955322,640.385315 1227.191040,640.806458 1228.508423,639.933655 
	C1230.661621,638.507141 1233.461914,636.314087 1233.694214,634.192993 
	C1233.958496,631.779358 1232.228638,628.570068 1230.368896,626.695312 
	C1229.033081,625.348694 1226.062744,625.241028 1223.819824,625.234497 
	C1193.824829,625.146790 1163.828857,625.247620 1133.835083,625.037292 
	C1131.382324,625.020081 1128.416870,623.637329 1126.596069,621.925110 
	C1121.142090,616.796082 1116.158081,611.169250 1110.952393,605.773682 
	C1106.262451,600.912537 1103.004028,600.931702 1098.320679,605.758118 
	C1090.200073,614.126892 1082.031372,622.450500 1074.014648,630.917847 
	C1072.938843,632.054138 1072.628418,633.915161 1071.963623,635.440613 
	C1071.312988,634.856018 1070.662354,634.271484 1070.011719,633.686890 
	C1069.643066,632.419861 1069.186279,631.171143 1068.918335,629.883118 
	C1061.910889,596.212708 1054.846924,562.553711 1047.956177,528.859314 
	C1042.430298,501.838165 1037.105957,474.775726 1031.727051,447.724670 
	C1030.942627,443.779846 1028.645874,441.135071 1024.697632,441.227814 
	C1020.640625,441.323059 1018.342957,443.688354 1017.796936,448.191376 
	C1015.036865,470.954163 1011.943909,493.676270 1009.073914,516.426086 
	C1004.708191,551.032959 1000.406311,585.648010 996.121216,620.265015 
	C991.974792,653.762329 987.904724,687.269104 983.750732,720.765564 
	C982.942383,727.283936 981.903137,733.773804 980.970398,740.276855 
	C978.935303,732.677734 977.851135,725.133240 976.545837,717.627258 
	C971.986816,691.412048 967.326843,665.214417 962.752502,639.001892 
	C958.720032,615.894043 954.750916,592.775146 950.859558,568.958435 
	C958.319824,552.472839 965.780090,535.987244 973.837158,519.156677 
	C977.534912,515.093323 981.232666,511.029968 985.471741,506.500214 
	C986.876343,500.776459 981.724548,500.236359 978.961121,497.219025 
	C984.255981,476.088531 986.502319,454.758484 984.110291,432.966003 
	C979.948853,395.052460 965.735779,361.047363 940.582031,332.873657 
	C893.705261,280.368896 835.289307,258.304321 764.825012,270.821655 
	C728.838074,277.214386 696.302795,290.840668 669.618591,315.896118 
	C620.730042,361.800537 600.092712,418.648712 607.935974,485.292450 
	C611.958008,519.467346 625.306763,550.319458 644.924561,578.450562 
	C658.120728,597.373413 674.845947,612.747253 692.890625,625.906494 
	C678.360779,625.884644 663.830933,625.862732 649.051147,625.200317 
	C645.174011,620.412109 641.341309,615.587036 637.412048,610.841919 
	C619.554504,589.276428 602.235168,567.355774 588.388672,542.865417 
	C575.259766,519.644470 568.303162,495.093506 570.984619,468.290497 
	C572.917175,448.974274 578.429199,430.481842 584.772705,412.242340 
	C593.737976,386.464661 598.516418,360.246552 594.990051,332.825989 
	C592.197876,311.114594 583.258606,293.199127 563.848145,282.055756 
	C537.929077,267.175812 509.572845,262.263306 480.097778,264.519196 
	C455.265472,266.419739 431.879395,274.207581 409.632202,285.219116 
	C383.542297,298.132690 359.762604,314.337860 341.750977,337.581238 
	C314.050812,373.327332 305.701874,414.057343 312.735931,458.227356 
	C320.423157,506.498871 338.994720,550.585632 365.066284,591.668457 
	C372.194794,602.901245 379.709778,613.888855 386.111145,625.121704 
	C377.445465,625.156128 368.773712,625.377319 360.118408,625.094055 
	C357.944214,625.022766 355.256470,623.865906 353.777374,622.293213 
	C347.962433,616.110046 342.765564,609.337219 336.838898,603.272217 
	C334.788910,601.174316 330.820526,598.921387 328.563782,599.584106 
	C325.917053,600.361267 322.863831,603.955872 322.249542,606.814636 
	C314.665039,642.112183 307.494934,677.498657 300.215576,712.861816 
	C298.524323,721.077759 296.824066,729.291931 295.127960,737.506897 
	C294.200897,736.759277 294.094696,736.147827 294.017029,735.532898 
	C290.263336,705.812439 286.472900,676.096436 282.769958,646.369629 
	C277.463898,603.773743 272.213623,561.170959 266.955963,518.569031 
	C264.083130,495.290985 261.218903,472.011810 258.412262,448.725739 
	C257.886322,444.362000 255.851334,441.183960 251.332230,441.173401 
	C247.077438,441.163452 244.712402,443.713348 243.795731,448.249969 
	C232.945892,501.945923 221.921494,555.606628 210.951843,609.278381 
	C209.281998,617.448547 207.657242,625.627991 205.847305,634.619507 
	C196.084824,624.069763 187.086517,614.278748 178.007767,604.562927 
	C173.418335,599.651489 169.665710,599.694885 164.892334,604.529846 
	C159.389954,610.103210 153.779541,615.578857 148.480240,621.339966 
	C146.009460,624.026123 143.423340,625.007080 139.777023,624.994019 
	C104.777740,624.869019 69.777771,624.920654 34.778023,624.949768 
	C28.524580,624.955017 24.906069,628.039368 25.022177,633.095276 
	C25.126503,637.638184 28.461706,640.187805 34.607655,640.192200 
	C71.440666,640.218384 108.274750,640.329102 145.105057,640.012451 
	C148.658524,639.981873 152.854996,637.976746 155.588715,635.567200 
	C161.041718,630.760864 165.685745,625.036682 170.815231,619.529053 
	C181.301483,630.628357 190.917450,640.781738 200.501633,650.965088 
	C203.628403,654.287354 206.658356,657.700867 211.974686,656.155029 
	C216.983383,654.698608 218.042343,650.538025 218.948654,646.186646 
	C225.654449,613.991455 232.438950,581.812561 239.096741,549.607544 
	C242.320236,534.014832 245.323868,518.376709 248.698425,501.393280 
	C249.364014,503.538055 249.727386,504.285278 249.818359,505.064301 
	C251.898636,522.881104 253.891312,540.708374 256.017731,558.519653 
	C260.074097,592.496582 263.967468,626.495483 268.362915,660.428955 
	C273.740967,701.948181 279.593353,743.405823 285.155029,784.901611 
	C285.744049,789.296204 288.166229,791.554260 292.281830,791.809631 
	C296.612732,792.078430 299.523651,790.079407 300.485565,785.527893 
	C308.953369,745.461975 317.472504,705.406860 325.968842,665.346985 
	C328.812225,651.940613 331.633728,638.529602 334.589233,624.533508 
	C337.822174,628.044983 340.825195,630.909973 343.354431,634.145386 
	C347.303345,639.196716 352.258392,640.943970 358.605469,640.850769 
	C372.255188,640.650269 385.913300,641.018250 399.841461,641.694641 
M556.780396,139.105316 
	C541.456360,143.565277 531.188904,153.775696 525.152466,168.124695 
	C522.142761,175.279053 519.841309,182.875259 518.330322,190.491959 
	C510.817688,228.361664 527.981506,256.649597 562.622864,271.140015 
	C578.972656,277.979095 594.224731,273.322266 603.469727,258.201965 
	C619.613281,231.799072 624.799866,202.980103 615.466187,173.091690 
	C606.719727,145.083405 584.981384,133.016129 556.780396,139.105316 
M75.261887,902.021667 
	C82.259483,902.869934 88.528877,904.846924 89.989388,912.969421 
	C90.662376,916.712097 91.042625,920.560425 91.048531,924.361694 
	C91.109337,963.503296 91.072723,1002.645142 91.048920,1041.786865 
	C91.039291,1057.606689 86.976906,1064.693604 71.974556,1065.224243 
	C71.024246,1065.257935 70.144539,1067.287354 69.232018,1068.388306 
	C70.270500,1069.185547 71.229095,1070.141968 72.378151,1070.718994 
	C73.041924,1071.052246 74.013062,1070.770630 74.845863,1070.770508 
	C93.808723,1070.767456 112.771721,1070.799683 131.734329,1070.728882 
	C135.000854,1070.716675 138.265732,1070.266113 141.397324,1070.028198 
	C142.548706,1066.234741 141.169266,1065.191040 137.915588,1064.885376 
	C124.074577,1063.585327 120.108368,1060.134399 118.981522,1046.696289 
	C118.080338,1035.949341 118.331474,1025.103760 118.132362,1014.300720 
	C118.047409,1009.691895 118.118179,1005.080261 118.118179,1000.016235 
	C121.234184,1000.016235 123.692642,1000.070923 126.148026,1000.007141 
	C138.382492,999.689514 150.764832,1000.422119 162.817352,998.764954 
	C184.179672,995.827698 204.688614,982.230774 207.609039,954.551575 
	C209.594360,935.735046 200.079315,915.297241 182.959518,905.961060 
	C169.524307,898.634277 154.837769,896.822937 140.087997,896.378662 
	C118.287872,895.722046 96.453484,896.184204 74.633789,896.226501 
	C72.671288,896.230347 70.044197,895.334045 69.913040,898.924255 
	C69.781189,902.533447 72.424431,901.651978 75.261887,902.021667 
M452.179626,946.496216 
	C452.179626,951.692688 452.179626,956.889221 452.179626,963.100525 
	C439.279968,949.864380 424.544464,946.377869 407.922363,948.909729 
	C387.847168,951.967529 373.661621,962.581421 365.890289,981.440674 
	C360.443512,994.658752 358.849152,1008.425842 360.983826,1022.524170 
	C364.176025,1043.607178 373.040833,1061.250366 393.872284,1069.680298 
	C411.293396,1076.730225 428.671661,1076.322510 444.475159,1064.550903 
	C447.267578,1062.470947 449.616486,1059.795654 452.898834,1056.710449 
	C452.898834,1061.229980 452.786591,1064.705322 452.930420,1068.169922 
	C453.073822,1071.624756 454.837952,1073.218018 458.488464,1072.758667 
	C468.690155,1071.474854 478.920959,1070.415527 489.108459,1069.033203 
	C490.480377,1068.847168 491.669434,1067.313477 492.943146,1066.403687 
	C491.602600,1065.630737 490.317474,1064.320312 488.912170,1064.175537 
	C481.849335,1063.447266 479.144653,1061.214478 477.941833,1054.207153 
	C477.466034,1051.435303 477.159027,1048.597656 477.148468,1045.788574 
	C477.079803,1027.491333 477.118073,1009.193787 477.113190,990.896362 
	C477.104340,957.745178 477.097351,924.593933 477.070190,891.442749 
	C477.065674,885.911072 476.566040,885.906677 471.268677,887.454224 
	C460.613159,890.567200 449.813629,893.184448 439.102692,896.112976 
	C437.314301,896.602051 434.385010,897.399963 434.197693,898.450195 
	C433.550171,902.079712 436.896149,900.781921 438.707581,901.075623 
	C449.399261,902.808472 452.244629,906.123047 452.211731,917.010986 
	C452.183044,926.506470 452.187195,936.002136 452.179626,946.496216 
M709.645447,1055.916870 
	C698.610901,1046.982666 692.015930,1035.208740 688.157043,1021.797424 
	C682.256287,1001.290100 682.400146,980.389282 684.933167,959.462769 
	C686.481323,946.672668 690.205322,934.492859 696.553406,923.109131 
	C716.599548,887.161377 760.908630,890.543335 783.248413,908.304565 
	C794.671387,917.386414 800.943970,929.669861 805.396545,943.194092 
	C805.928040,944.808533 807.898438,945.949158 809.201782,947.309448 
	C809.968811,945.603760 811.381775,943.905212 811.400879,942.191162 
	C811.556702,928.197815 811.451782,914.201660 811.427368,900.206299 
	C811.424011,898.257141 811.426941,896.307922 811.426941,894.621704 
	C806.346680,892.395630 805.477661,895.988159 803.986267,898.659241 
	C799.799500,906.157837 796.942322,906.939087 789.735291,902.613953 
	C788.022217,901.585876 786.312500,900.549744 784.567566,899.577637 
	C744.287354,877.139343 692.998474,888.953857 667.275757,927.155579 
	C652.919006,948.477051 648.757568,972.380615 652.062500,997.741821 
	C655.120605,1021.209717 665.010559,1041.101074 683.683350,1055.821045 
	C712.292480,1078.374023 756.358459,1080.406982 787.450745,1061.241211 
	C797.222290,1055.217896 800.635071,1056.357422 805.033447,1067.109497 
	C805.222534,1067.571655 805.310486,1068.163086 805.650269,1068.460205 
	C806.968201,1069.612305 808.368835,1070.669678 809.738708,1071.762329 
	C810.558533,1070.230957 812.061951,1068.711304 812.088501,1067.166382 
	C812.277344,1056.173340 812.161316,1045.174927 812.149109,1034.178345 
	C812.142090,1027.887207 812.147766,1021.596130 812.147766,1015.144287 
	C810.185425,1015.144287 808.737366,1015.144287 807.478149,1015.144287 
	C805.250000,1020.930237 803.268738,1026.582397 800.925049,1032.079956 
	C783.998962,1071.783325 733.023621,1075.073975 709.645447,1055.916870 
M865.300293,964.092041 
	C862.718872,958.880676 863.032532,957.422668 868.112427,955.212708 
	C874.951355,952.237427 882.107910,951.106873 889.540833,952.646118 
	C899.877014,954.786560 905.083557,960.045288 906.027954,970.471130 
	C906.686768,977.744751 906.261597,985.110718 906.697266,992.413025 
	C906.906494,995.920959 905.307861,997.048828 902.329651,997.625061 
	C895.320068,998.981079 888.298584,1000.310913 881.351318,1001.946167 
	C868.227478,1005.035278 855.067871,1008.208435 844.029541,1016.554199 
	C833.587952,1024.448730 828.763062,1035.006226 831.216858,1048.011108 
	C833.644897,1060.879150 841.959656,1068.976685 854.468262,1072.021729 
	C875.015686,1077.023682 892.498413,1071.315674 907.010620,1055.020386 
	C908.454346,1066.148682 914.766785,1072.533447 925.446289,1073.562744 
	C935.106018,1074.493774 944.090088,1071.915405 951.877258,1065.135742 
	C950.442444,1064.198730 948.955078,1063.685669 947.593262,1063.915527 
	C938.564026,1065.440063 932.922241,1061.499634 931.761719,1052.501099 
	C931.358948,1049.377441 931.208923,1046.202515 931.198181,1043.050049 
	C931.130798,1023.236267 931.228638,1003.421509 931.089539,983.608398 
	C930.951416,963.939331 922.699280,952.187988 905.829529,947.640076 
	C890.251099,943.440308 874.820007,944.251221 859.810608,950.160767 
	C852.281250,953.125305 845.440857,957.259155 841.583374,964.896729 
	C837.153198,973.668274 840.501404,983.057739 849.080933,985.797424 
	C854.776733,987.616150 860.108032,986.759155 864.274902,982.369568 
	C869.338379,977.035400 868.624695,970.928955 865.300293,964.092041 
M224.250595,1036.111206 
	C228.086304,1045.300537 233.320068,1053.541626 241.044769,1059.953613 
	C256.279297,1072.599121 273.974792,1075.920654 293.044769,1072.842407 
	C307.958923,1070.435059 320.069305,1062.943604 329.322021,1050.965942 
	C336.215546,1042.042236 339.985138,1031.751587 341.360321,1020.713806 
	C343.595093,1002.777283 340.580872,985.874817 329.581573,971.045532 
	C319.236115,957.097961 304.901062,949.896973 287.931946,948.311340 
	C269.247589,946.565369 251.625290,950.501648 238.343597,964.386536 
	C218.898666,984.714600 215.925049,1009.101685 224.250595,1036.111206 
M506.942505,1011.500000 
	C507.003540,1013.996704 506.872284,1016.515503 507.156708,1018.986450 
	C509.049316,1035.428833 515.154358,1049.795410 528.149170,1060.640503 
	C537.390320,1068.352783 548.110596,1072.034790 560.074829,1073.270264 
	C579.677673,1075.294556 596.878113,1070.389893 610.421997,1055.975952 
	C625.953369,1039.446899 629.565063,1019.101868 625.847778,997.456970 
	C621.934265,974.669922 609.288147,958.051880 586.901489,951.079163 
	C563.696411,943.851501 541.773193,947.644348 523.943909,965.003235 
	C511.408630,977.207886 506.970306,993.234497 506.942505,1011.500000 
M1156.320801,1059.062500 
	C1153.794922,1059.881104 1151.312622,1060.885254 1148.736206,1061.487915 
	C1133.182983,1065.125610 1116.899292,1059.811523 1109.418335,1048.510986 
	C1100.096436,1034.429565 1099.698975,1018.616150 1100.416870,1002.072571 
	C1114.175293,1002.072571 1127.466553,1002.072571 1140.757812,1002.072571 
	C1154.030273,1002.072571 1167.302856,1002.072571 1180.840576,1002.072571 
	C1182.008057,986.985046 1178.517578,973.741394 1169.377808,962.384033 
	C1149.570801,937.771118 1106.959229,939.169006 1086.440674,965.114075 
	C1071.212524,984.369385 1069.291504,1006.599304 1074.303101,1029.519165 
	C1080.012329,1055.629150 1098.293213,1071.781860 1124.822266,1073.763794 
	C1148.052246,1075.499390 1170.006836,1067.915039 1181.455200,1042.533691 
	C1181.574585,1042.268921 1181.470093,1041.903198 1181.470093,1041.261841 
	C1180.342041,1040.715332 1179.070923,1040.099609 1177.615356,1039.394531 
	C1172.333618,1047.818970 1166.111572,1054.849609 1156.320801,1059.062500 
M468.587708,159.789734 
	C454.153412,164.151016 446.048645,174.163742 443.980469,188.756592 
	C441.618896,205.419708 446.024261,221.021790 453.157532,235.930634 
	C457.855133,245.748764 465.686554,251.414291 476.692383,251.670044 
	C487.857391,251.929504 496.278046,246.654541 501.456665,236.934967 
	C511.275848,218.505585 512.731323,199.130630 505.574799,179.584396 
	C499.730042,163.621109 485.819305,156.389435 468.587708,159.789734 
M380.109833,203.771530 
	C379.055023,207.074356 377.584381,210.307281 377.015381,213.691772 
	C374.144379,230.769821 388.187042,257.445038 403.808563,264.796844 
	C412.129913,268.713074 420.433899,268.152252 426.972168,261.775330 
	C431.200134,257.651703 435.180634,252.213120 436.775818,246.648254 
	C441.762909,229.250671 437.003204,213.280609 425.843842,199.604004 
	C413.479004,184.450027 390.822998,186.524918 380.109833,203.771530 
M328.568878,250.249832 
	C320.771881,267.554321 331.385529,285.927429 343.032959,294.726776 
	C358.662872,306.534821 378.071808,299.653503 381.741608,280.440125 
	C384.344604,266.812134 380.313782,254.569031 370.897430,244.614639 
	C357.690399,230.652924 338.864929,233.092834 328.568878,250.249832 
M331.704498,336.110748 
	C341.845490,320.350403 333.393311,301.531219 323.035156,292.946014 
	C309.666229,281.865417 291.355713,286.719971 284.739410,302.812347 
	C279.095947,316.538483 284.789124,333.018066 298.281128,342.010468 
	C310.254181,349.990448 322.319000,348.049347 331.704498,336.110748 
z"/>
<path fill="#FD82B5" opacity="1.000000" stroke="none" 
	d="
M938.847046,591.981018 
	C937.538025,597.084656 935.910156,602.130798 934.978210,607.302368 
	C931.830872,624.767273 925.049133,640.977844 915.011902,655.231201 
	C908.239136,664.848999 898.487793,672.412109 889.850708,680.666016 
	C863.575989,705.775146 834.171448,727.001099 805.372803,749.018127 
	C787.559692,762.636414 771.013184,777.898254 753.535400,791.971924 
	C735.682007,806.347961 717.802979,820.758362 699.161316,834.070129 
	C681.593384,846.615234 661.141296,851.545715 639.689026,850.782654 
	C613.208313,849.840698 589.368713,840.770142 569.814697,822.892273 
	C545.259521,800.442017 521.151855,777.451294 497.746429,753.807495 
	C469.300995,725.072327 441.719727,695.471680 416.471588,663.815735 
	C411.089294,657.067383 406.099274,650.006287 401.322815,642.621216 
	C412.798920,642.094666 423.880798,642.036133 435.383850,641.995117 
	C441.782867,641.522583 447.344543,640.303406 449.982025,633.960022 
	C449.998535,633.988708 449.932770,633.981689 450.201355,633.921509 
	C450.645905,633.554199 450.821838,633.247009 450.999969,632.971436 
	C451.002136,633.003113 450.938995,632.997070 451.206421,632.929565 
	C451.646606,632.552917 451.819397,632.243774 451.994690,631.966797 
	C451.997253,631.999023 451.933716,631.987427 452.211731,631.940369 
	C452.655334,631.577271 452.820923,631.261292 452.991699,630.973633 
	C452.996887,631.002014 452.945251,630.976257 453.298798,630.999756 
	C456.165985,627.867126 459.679535,625.086182 461.027649,621.492798 
	C468.627045,601.236633 475.843109,580.832336 482.869873,560.368591 
	C484.713226,555.000244 485.419617,549.241577 486.695129,543.289795 
	C487.496521,540.620911 488.250854,538.324341 489.005219,536.027832 
	C489.313446,536.131104 489.621674,536.234436 489.929901,536.337708 
	C490.309906,539.569031 490.689941,542.800293 490.793976,546.274841 
	C491.144379,552.214233 491.592529,557.936890 492.432068,563.601440 
	C494.559601,577.956421 496.788574,592.297729 499.164642,606.613281 
	C499.588013,609.164062 500.913696,611.565002 501.752319,614.485168 
	C501.505096,615.182007 501.328278,615.428894 501.256409,615.875854 
	C501.309204,617.368652 501.036713,618.696777 501.237518,619.949036 
	C505.168335,644.458008 509.066162,668.973022 513.195374,693.448853 
	C514.139526,699.044800 515.920654,704.499573 517.465576,710.332153 
	C517.637268,711.102478 517.660034,711.559998 517.491394,712.232483 
	C517.528137,713.255737 517.756287,714.064087 518.086060,715.141479 
	C518.177673,715.602173 518.167603,715.793701 517.873413,716.220703 
	C517.769104,718.522644 517.742065,720.632751 518.167725,722.647217 
	C519.398499,728.471619 520.811462,734.257385 522.318481,740.359375 
	C522.522400,741.112305 522.560791,741.564148 522.439941,742.206787 
	C522.497375,742.934692 522.714111,743.471863 523.052612,744.301147 
	C523.179077,745.011780 523.183655,745.430298 523.129883,746.197632 
	C523.417419,747.343323 523.763367,748.140259 524.366882,749.166016 
	C530.896057,755.373291 537.144958,753.872742 539.714355,745.762207 
	C540.214722,744.182556 540.660095,742.585449 541.481201,740.907593 
	C544.576355,729.226013 547.321045,717.633118 550.309814,705.813293 
	C550.714539,704.720520 550.875244,703.854797 551.259277,702.820679 
	C551.591431,702.124695 551.700256,701.597107 551.871704,700.665100 
	C554.417542,690.166321 556.967773,680.087341 559.314819,669.961365 
	C559.683350,668.371399 559.130066,666.567810 559.130981,664.500977 
	C560.207520,659.813538 561.156128,655.488098 562.462646,651.032654 
	C564.217712,644.943420 565.614929,638.984253 567.247986,632.793457 
	C567.640320,631.709473 567.796692,630.857117 568.004700,629.703186 
	C568.353577,628.883423 568.650940,628.365234 569.249634,628.009033 
	C572.055481,630.085449 574.559875,631.999878 577.038330,633.948120 
	C577.012329,633.981995 577.084045,633.935913 577.105408,634.252075 
	C577.568420,634.897827 578.010071,635.227356 578.309937,635.607544 
	C578.168091,635.658203 578.465576,635.611084 578.446838,635.895508 
	C578.749939,636.317444 579.071716,636.454834 579.201538,636.732056 
	C579.009460,636.871826 579.393860,636.582825 579.393188,636.873108 
	C579.867920,637.426453 580.343445,637.689514 581.146973,638.105347 
	C585.678711,639.513306 589.863831,641.777649 594.089233,641.855347 
	C617.062073,642.277954 640.044922,642.161377 663.156372,642.530396 
	C674.089783,657.868774 685.644165,672.219788 701.160339,685.203003 
	C703.624817,669.880615 705.853821,656.022644 708.274902,641.816406 
	C709.022095,636.303101 709.577026,631.137939 710.269470,625.640686 
	C715.603882,611.892151 717.717102,598.166809 714.927856,583.850342 
	C714.047852,579.333374 712.590881,574.514221 713.345581,570.171936 
	C715.500732,557.771118 715.213501,545.782776 710.585022,534.013000 
	C709.547180,531.374023 710.238647,529.718140 712.863220,528.418518 
	C717.457764,526.143433 722.096252,526.195557 727.120972,527.624023 
	C730.519836,530.678467 733.675476,533.523193 736.938232,536.665405 
	C738.408569,538.975708 739.771851,540.988403 741.156738,543.368469 
	C743.151917,552.432861 745.148560,561.124695 747.093323,569.828125 
	C749.432678,580.297546 750.468018,591.265381 754.301758,601.151245 
	C762.545776,622.409729 785.255798,624.410461 800.549927,609.559631 
	C810.123291,600.263794 814.512024,588.368774 813.997559,574.460938 
	C814.341614,570.215515 814.682434,566.374451 815.205078,562.147827 
	C818.103760,553.772095 816.810120,547.389160 808.409180,543.595093 
	C806.800964,542.868835 805.381470,541.526123 804.141357,540.215637 
	C795.690491,531.285156 784.822021,527.840454 772.765625,526.137329 
	C768.378601,523.350403 764.300476,520.753784 760.119141,517.783936 
	C759.026978,513.944153 758.038208,510.477631 757.260376,506.686279 
	C758.405518,502.525360 759.339661,498.689301 760.674438,494.888000 
	C764.949219,495.621063 768.823364,496.319397 773.006348,497.301514 
	C778.551025,498.053558 783.853088,498.153961 789.006348,499.081360 
	C795.734802,500.292236 802.495483,501.714233 808.953613,503.898834 
	C813.218079,505.341339 816.974915,508.284576 821.069946,510.831848 
	C825.396179,514.019592 829.611389,516.931335 833.998169,520.148193 
	C839.993347,525.658630 845.894775,530.780029 851.617310,536.094177 
	C856.780579,540.888977 858.224487,547.351562 857.639465,553.897766 
	C856.085815,571.282288 856.619934,588.383301 861.507324,605.287231 
	C864.475586,615.553772 865.987122,626.046021 863.239441,636.711426 
	C863.020447,637.561523 863.297058,638.539307 863.343384,639.457764 
	C864.966309,638.652283 865.746826,637.560608 866.013916,636.355164 
	C868.467346,625.284485 868.011719,614.373840 864.376099,603.560730 
	C860.524292,592.104797 858.990601,580.658081 864.401611,569.066162 
	C866.351562,564.888977 867.307678,560.224548 868.507568,555.726501 
	C869.896484,550.519775 869.316650,545.619385 866.281982,540.926331 
	C862.399414,534.921814 858.585449,528.837769 855.263123,522.514221 
	C849.996521,512.489746 843.340942,503.745728 834.022095,496.871765 
	C833.933167,496.666016 833.898132,496.219086 833.953979,495.851440 
	C835.849854,493.535736 837.889709,491.733643 839.457825,489.586975 
	C840.459900,488.215240 841.128662,486.372681 841.309021,484.673492 
	C841.739197,480.622589 841.802795,476.537079 846.803223,473.820282 
	C846.978638,481.929077 851.878357,483.956055 858.468018,484.839050 
	C864.206665,485.607941 866.229980,488.791199 867.117859,494.487732 
	C867.417542,496.410400 868.601501,498.522797 870.023682,499.870758 
	C872.526733,502.243256 875.683228,503.917328 878.254028,506.230652 
	C879.768738,507.593628 881.933472,509.868164 881.651611,511.312317 
	C880.396057,517.745911 885.182251,520.303833 888.631104,523.831299 
	C889.844666,525.072632 891.720154,526.445190 891.816223,527.858215 
	C892.135498,532.556396 894.332581,535.476379 898.656738,536.727905 
	C897.563599,542.393188 897.563599,542.393188 902.990906,545.346313 
	C900.017029,550.920532 904.623047,552.654541 908.078247,555.477539 
	C907.036194,563.974426 905.986328,572.012756 904.698303,580.325134 
	C901.060303,593.941162 897.660522,607.283264 894.260681,620.625366 
	C894.696960,620.733765 895.133179,620.842163 895.569397,620.950562 
	C896.453796,617.804260 897.338257,614.657959 898.222534,611.511658 
	C901.163147,601.048584 904.103577,590.585510 907.174011,579.776184 
	C910.657715,572.992493 912.873474,565.514343 917.606812,560.338501 
	C926.900879,550.175842 933.291443,538.580322 939.173218,526.384521 
	C942.172302,520.165894 945.681396,513.823792 950.370911,508.874390 
	C957.833252,500.998627 966.942383,495.484467 978.738525,497.983948 
	C981.724548,500.236359 986.876343,500.776459 984.880737,506.592743 
	C983.218567,506.265289 982.064148,505.984497 981.090149,505.401978 
	C976.120056,502.429535 974.373535,502.780548 971.261108,507.531647 
	C968.131592,512.308899 968.532837,514.735229 973.240356,519.501709 
	C965.780090,535.987244 958.319824,552.472839 950.531006,569.500671 
	C946.417297,577.355591 942.632141,584.668274 938.847046,591.981018 
M886.071228,652.243164 
	C889.151672,643.206543 892.232117,634.169983 895.312622,625.133362 
	C894.792358,624.965576 894.272095,624.797791 893.751831,624.630005 
	C890.734375,634.396667 887.716980,644.163330 884.481018,654.637329 
	C885.216553,653.622192 885.503235,653.226624 886.071228,652.243164 
z"/>
<path fill="#D30F7C" opacity="1.000000" stroke="none" 
	d="
M387.047394,624.988953 
	C379.709778,613.888855 372.194794,602.901245 365.066284,591.668457 
	C338.994720,550.585632 320.423157,506.498871 312.735931,458.227356 
	C305.701874,414.057343 314.050812,373.327332 341.750977,337.581238 
	C359.762604,314.337860 383.542297,298.132690 409.632202,285.219116 
	C431.879395,274.207581 455.265472,266.419739 480.097778,264.519196 
	C509.572845,262.263306 537.929077,267.175812 563.848145,282.055756 
	C583.258606,293.199127 592.197876,311.114594 594.990051,332.825989 
	C598.516418,360.246552 593.737976,386.464661 584.772705,412.242340 
	C578.429199,430.481842 572.917175,448.974274 570.984619,468.290497 
	C568.303162,495.093506 575.259766,519.644470 588.388672,542.865417 
	C602.235168,567.355774 619.554504,589.276428 637.412048,610.841919 
	C641.341309,615.587036 645.174011,620.412109 648.714600,625.706421 
	C631.060181,626.190796 613.739990,626.300049 596.427002,625.997681 
	C594.000061,625.955322 590.983276,624.472168 589.313660,622.664062 
	C583.560913,616.434204 578.166382,609.858643 572.875854,603.223083 
	C570.206543,599.875183 567.463745,597.268372 562.825378,598.429749 
	C558.243835,599.576782 556.848755,603.202026 555.902893,607.302124 
	C549.730347,634.059265 543.509766,660.805420 537.264221,687.545593 
	C535.983398,693.029358 534.530334,698.472900 533.156738,703.934998 
	C525.356018,660.492310 518.314026,617.301208 511.494141,574.074951 
	C507.421661,548.262451 503.689087,522.396179 499.825531,496.550812 
	C499.203461,492.389404 497.581696,489.168335 492.837494,488.835449 
	C488.220673,488.511475 486.593292,491.566711 485.334991,495.346985 
	C474.197418,528.807861 463.030243,562.259155 451.746033,595.670837 
	C449.515533,602.275146 447.577576,609.216370 443.949615,615.032043 
	C441.261353,619.341431 436.243286,624.725830 431.932404,625.036072 
	C417.048950,626.107239 402.020569,625.164734 387.047394,624.988953 
z"/>
<path fill="#E10C78" opacity="1.000000" stroke="none" 
	d="
M904.936462,580.051147 
	C905.986328,572.012756 907.036194,563.974426 908.316833,555.199219 
	C906.908203,548.449951 905.268799,542.437500 903.776733,536.262573 
	C903.924072,536.100098 904.230835,535.786560 904.501343,536.008057 
	C906.537537,540.011047 908.303162,543.792480 910.465637,548.423889 
	C910.465637,540.361938 911.715210,532.932251 910.182190,526.129700 
	C907.682068,515.035522 903.312073,504.367889 899.832581,493.487823 
	C896.818115,484.061920 893.944458,474.590912 891.465454,465.146118 
	C892.921448,465.156708 893.920654,465.162445 894.919800,465.165131 
	C906.345825,465.196075 909.971497,461.678741 909.988098,450.427734 
	C910.011414,434.607361 910.035583,418.786713 909.967651,402.966583 
	C909.926453,393.389404 906.537720,390.095673 896.995117,390.086578 
	C879.176270,390.069611 861.357422,390.066223 843.538574,390.057434 
	C836.254761,390.053864 833.928101,387.738739 833.936829,380.568970 
	C833.958740,362.583710 833.986511,344.598389 833.968201,326.613159 
	C833.959534,318.075806 829.597168,313.693787 821.079102,313.673767 
	C805.258789,313.636566 789.438232,313.632111 773.617920,313.670593 
	C764.174561,313.693573 760.212097,317.595917 760.178467,327.041199 
	C760.117493,344.193604 760.171021,361.346466 760.175415,378.499115 
	C760.177795,387.709595 757.884399,390.065826 748.690308,390.081757 
	C731.704224,390.111176 714.717896,390.049683 697.731934,390.096466 
	C688.759644,390.121155 684.881897,393.960907 684.855896,402.751221 
	C684.806580,419.404266 684.780334,436.057465 684.801819,452.710571 
	C684.812927,461.342316 688.578674,465.083832 697.317993,465.171509 
	C704.311584,465.241669 711.306824,465.132935 718.300598,465.190521 
	C729.933228,465.286224 741.565369,465.451599 752.933960,465.948181 
	C745.879517,467.196655 739.090881,468.101532 732.294617,468.943878 
	C731.677795,469.020294 730.961609,468.804779 730.375122,468.539825 
	C719.979492,463.843964 711.207336,468.641418 702.510986,473.436188 
	C701.708374,473.878693 701.645996,475.663574 701.239868,476.825104 
	C702.393738,477.083527 703.702393,477.818359 704.670044,477.503845 
	C706.866455,476.790070 708.806824,475.075897 711.016174,474.673035 
	C713.321533,474.252716 715.820312,474.893555 718.591614,475.096619 
	C720.025269,474.637360 722.367188,473.028961 724.290771,473.429535 
	C730.396362,474.700928 733.996094,484.025024 731.279785,489.707947 
	C730.536621,491.262878 730.221558,493.876862 731.049194,495.094604 
	C731.925415,496.383759 734.397766,496.588104 737.172729,497.648193 
	C735.100952,488.478516 745.002441,492.837616 745.896301,487.578400 
	C741.754700,482.511719 742.915955,479.100769 749.360657,476.733917 
	C752.300964,475.654053 755.123840,474.254547 758.255371,473.230316 
	C758.339661,475.640411 758.168579,477.820221 757.593262,480.000977 
	C754.404541,479.816498 752.932556,480.921814 752.981384,483.910034 
	C753.036743,487.295715 754.551514,489.048157 757.996460,489.399841 
	C757.996887,490.867065 757.996033,491.934143 757.595337,493.000793 
	C753.346802,492.289673 750.275879,492.477356 747.522156,496.353912 
	C746.041382,498.438446 742.011047,499.845642 739.251526,499.669739 
	C731.784851,499.193726 730.567688,500.126617 728.815002,507.696594 
	C727.997192,511.228821 727.517883,514.062134 729.444824,517.347839 
	C730.151672,518.553101 729.415649,520.778198 728.968384,522.438538 
	C728.504700,524.159912 727.593323,525.760742 726.877808,527.414307 
	C722.096252,526.195557 717.457764,526.143433 712.863220,528.418518 
	C710.238647,529.718140 709.547180,531.374023 710.585022,534.013000 
	C715.213501,545.782776 715.500732,557.771118 713.345581,570.171936 
	C712.590881,574.514221 714.047852,579.333374 714.927856,583.850342 
	C717.717102,598.166809 715.603882,611.892151 709.788940,625.633911 
	C704.042969,625.902039 698.915039,625.844849 693.787048,625.787598 
	C674.845947,612.747253 658.120728,597.373413 644.924561,578.450562 
	C625.306763,550.319458 611.958008,519.467346 607.935974,485.292450 
	C600.092712,418.648712 620.730042,361.800537 669.618591,315.896118 
	C696.302795,290.840668 728.838074,277.214386 764.825012,270.821655 
	C835.289307,258.304321 893.705261,280.368896 940.582031,332.873657 
	C965.735779,361.047363 979.948853,395.052460 984.110291,432.966003 
	C986.502319,454.758484 984.255981,476.088531 978.849854,497.601501 
	C966.942383,495.484467 957.833252,500.998627 950.370911,508.874390 
	C945.681396,513.823792 942.172302,520.165894 939.173218,526.384521 
	C933.291443,538.580322 926.900879,550.175842 917.606812,560.338501 
	C912.873474,565.514343 910.657715,572.992493 906.822632,579.767090 
	C905.873047,580.086548 905.404785,580.068848 904.936462,580.051147 
z"/>
<path fill="#0AD2DA" opacity="1.000000" stroke="none" 
	d="
M693.338867,625.847046 
	C698.915039,625.844849 704.042969,625.902039 709.651489,625.966064 
	C709.577026,631.137939 709.022095,636.303101 707.798462,641.799866 
	C692.427917,642.164490 677.726135,642.197449 663.024292,642.230347 
	C640.044922,642.161377 617.062073,642.277954 594.089233,641.855347 
	C589.863831,641.777649 585.678711,639.513306 581.050842,637.869141 
	C580.215759,637.181091 579.804810,636.881958 579.393860,636.582825 
	C579.393860,636.582825 579.009460,636.871826 579.109863,636.515869 
	C579.026550,635.889465 578.778320,635.706543 578.465576,635.611084 
	C578.465576,635.611084 578.168091,635.658203 578.209717,635.354858 
	C577.862244,634.679626 577.473145,634.307739 577.084045,633.935913 
	C577.084045,633.935913 577.012329,633.981995 576.902466,633.645630 
	C574.434082,630.480835 572.106018,627.625671 569.671692,624.864136 
	C569.418945,624.577393 568.535339,624.846863 567.747559,625.177185 
	C567.353638,626.984802 567.156555,628.473450 566.771057,630.271301 
	C565.089966,637.441223 563.597351,644.301941 562.104736,651.162720 
	C561.156128,655.488098 560.207520,659.813538 558.966675,664.850952 
	C555.528564,679.047241 552.382690,692.531555 549.052246,706.352417 
	C546.288757,718.124817 543.709839,729.560608 541.130859,740.996399 
	C540.660095,742.585449 540.214722,744.182556 539.714355,745.762207 
	C537.144958,753.872742 530.896057,755.373291 524.329102,748.842285 
	C523.752014,747.476135 523.470093,746.662476 523.188232,745.848877 
	C523.183655,745.430298 523.179077,745.011780 523.086121,743.958252 
	C522.864868,742.887573 522.731995,742.451782 522.599121,742.016052 
	C522.560791,741.564148 522.522400,741.112305 522.400208,739.972412 
	C520.930054,731.518005 519.543762,723.751587 518.157471,715.985229 
	C518.167603,715.793701 518.177673,715.602173 518.139404,714.783386 
	C517.955017,713.443237 517.818848,712.730408 517.682739,712.017517 
	C517.660034,711.559998 517.637268,711.102478 517.561768,709.938110 
	C512.721375,679.930237 507.953461,650.625854 503.101227,621.335510 
	C502.779694,619.394531 501.816315,617.559937 501.151428,615.675842 
	C501.328278,615.428894 501.505096,615.182007 501.776764,614.059998 
	C499.861267,600.249878 497.895203,587.307922 495.825745,574.382446 
	C494.310913,564.920898 492.660156,555.481079 491.069977,546.031616 
	C490.689941,542.800293 490.309906,539.569031 489.929901,536.337708 
	C489.621674,536.234436 489.313446,536.131104 489.005219,536.027832 
	C488.250854,538.324341 487.496521,540.620911 486.485291,543.577759 
	C482.075897,556.524780 478.359283,568.980835 473.665466,581.057129 
	C467.140289,597.845093 464.073761,616.098267 452.945251,630.976257 
	C452.945251,630.976257 452.996887,631.002014 452.722656,631.031372 
	C452.276825,631.369690 452.105255,631.678528 451.933716,631.987427 
	C451.933716,631.987427 451.997253,631.999023 451.730164,632.036255 
	C451.288391,632.381287 451.113708,632.689209 450.938995,632.997070 
	C450.938995,632.997070 451.002136,633.003113 450.731689,633.037292 
	C450.285065,633.374878 450.108917,633.678284 449.932770,633.981689 
	C449.932770,633.981689 449.998535,633.988708 449.639343,634.017090 
	C444.519043,636.420349 439.757965,638.795288 434.532837,641.102295 
	C422.568542,641.074158 411.068237,641.113831 399.567963,641.153564 
	C385.913300,641.018250 372.255188,640.650269 358.605469,640.850769 
	C352.258392,640.943970 347.303345,639.196716 343.354431,634.145386 
	C340.825195,630.909973 337.822174,628.044983 334.589233,624.533508 
	C331.633728,638.529602 328.812225,651.940613 325.968842,665.346985 
	C317.472504,705.406860 308.953369,745.461975 300.485565,785.527893 
	C299.523651,790.079407 296.612732,792.078430 292.281830,791.809631 
	C288.166229,791.554260 285.744049,789.296204 285.155029,784.901611 
	C279.593353,743.405823 273.740967,701.948181 268.362915,660.428955 
	C263.967468,626.495483 260.074097,592.496582 256.017731,558.519653 
	C253.891312,540.708374 251.898636,522.881104 249.818359,505.064301 
	C249.727386,504.285278 249.364014,503.538055 248.698425,501.393280 
	C245.323868,518.376709 242.320236,534.014832 239.096741,549.607544 
	C232.438950,581.812561 225.654449,613.991455 218.948654,646.186646 
	C218.042343,650.538025 216.983383,654.698608 211.974686,656.155029 
	C206.658356,657.700867 203.628403,654.287354 200.501633,650.965088 
	C190.917450,640.781738 181.301483,630.628357 170.815231,619.529053 
	C165.685745,625.036682 161.041718,630.760864 155.588715,635.567200 
	C152.854996,637.976746 148.658524,639.981873 145.105057,640.012451 
	C108.274750,640.329102 71.440666,640.218384 34.607655,640.192200 
	C28.461706,640.187805 25.126503,637.638184 25.022177,633.095276 
	C24.906069,628.039368 28.524580,624.955017 34.778023,624.949768 
	C69.777771,624.920654 104.777740,624.869019 139.777023,624.994019 
	C143.423340,625.007080 146.009460,624.026123 148.480240,621.339966 
	C153.779541,615.578857 159.389954,610.103210 164.892334,604.529846 
	C169.665710,599.694885 173.418335,599.651489 178.007767,604.562927 
	C187.086517,614.278748 196.084824,624.069763 205.847305,634.619507 
	C207.657242,625.627991 209.281998,617.448547 210.951843,609.278381 
	C221.921494,555.606628 232.945892,501.945923 243.795731,448.249969 
	C244.712402,443.713348 247.077438,441.163452 251.332230,441.173401 
	C255.851334,441.183960 257.886322,444.362000 258.412262,448.725739 
	C261.218903,472.011810 264.083130,495.290985 266.955963,518.569031 
	C272.213623,561.170959 277.463898,603.773743 282.769958,646.369629 
	C286.472900,676.096436 290.263336,705.812439 294.017029,735.532898 
	C294.094696,736.147827 294.200897,736.759277 295.127960,737.506897 
	C296.824066,729.291931 298.524323,721.077759 300.215576,712.861816 
	C307.494934,677.498657 314.665039,642.112183 322.249542,606.814636 
	C322.863831,603.955872 325.917053,600.361267 328.563782,599.584106 
	C330.820526,598.921387 334.788910,601.174316 336.838898,603.272217 
	C342.765564,609.337219 347.962433,616.110046 353.777374,622.293213 
	C355.256470,623.865906 357.944214,625.022766 360.118408,625.094055 
	C368.773712,625.377319 377.445465,625.156128 386.579285,625.055298 
	C402.020569,625.164734 417.048950,626.107239 431.932404,625.036072 
	C436.243286,624.725830 441.261353,619.341431 443.949615,615.032043 
	C447.577576,609.216370 449.515533,602.275146 451.746033,595.670837 
	C463.030243,562.259155 474.197418,528.807861 485.334991,495.346985 
	C486.593292,491.566711 488.220673,488.511475 492.837494,488.835449 
	C497.581696,489.168335 499.203461,492.389404 499.825531,496.550812 
	C503.689087,522.396179 507.421661,548.262451 511.494141,574.074951 
	C518.314026,617.301208 525.356018,660.492310 533.156738,703.934998 
	C534.530334,698.472900 535.983398,693.029358 537.264221,687.545593 
	C543.509766,660.805420 549.730347,634.059265 555.902893,607.302124 
	C556.848755,603.202026 558.243835,599.576782 562.825378,598.429749 
	C567.463745,597.268372 570.206543,599.875183 572.875854,603.223083 
	C578.166382,609.858643 583.560913,616.434204 589.313660,622.664062 
	C590.983276,624.472168 594.000061,625.955322 596.427002,625.997681 
	C613.739990,626.300049 631.060181,626.190796 648.839600,626.026611 
	C663.830933,625.862732 678.360779,625.884644 693.338867,625.847046 
z"/>
<path fill="#0AD3D9" opacity="1.000000" stroke="none" 
	d="
M939.034424,592.369812 
	C942.632141,584.668274 946.417297,577.355591 950.478149,569.852051 
	C954.750916,592.775146 958.720032,615.894043 962.752502,639.001892 
	C967.326843,665.214417 971.986816,691.412048 976.545837,717.627258 
	C977.851135,725.133240 978.935303,732.677734 980.970398,740.276855 
	C981.903137,733.773804 982.942383,727.283936 983.750732,720.765564 
	C987.904724,687.269104 991.974792,653.762329 996.121216,620.265015 
	C1000.406311,585.648010 1004.708191,551.032959 1009.073914,516.426086 
	C1011.943909,493.676270 1015.036865,470.954163 1017.796936,448.191376 
	C1018.342957,443.688354 1020.640625,441.323059 1024.697632,441.227814 
	C1028.645874,441.135071 1030.942627,443.779846 1031.727051,447.724670 
	C1037.105957,474.775726 1042.430298,501.838165 1047.956177,528.859314 
	C1054.846924,562.553711 1061.910889,596.212708 1068.918335,629.883118 
	C1069.186279,631.171143 1069.643066,632.419861 1070.011719,633.686890 
	C1070.662354,634.271484 1071.312988,634.856018 1071.963623,635.440613 
	C1072.628418,633.915161 1072.938843,632.054138 1074.014648,630.917847 
	C1082.031372,622.450500 1090.200073,614.126892 1098.320679,605.758118 
	C1103.004028,600.931702 1106.262451,600.912537 1110.952393,605.773682 
	C1116.158081,611.169250 1121.142090,616.796082 1126.596069,621.925110 
	C1128.416870,623.637329 1131.382324,625.020081 1133.835083,625.037292 
	C1163.828857,625.247620 1193.824829,625.146790 1223.819824,625.234497 
	C1226.062744,625.241028 1229.033081,625.348694 1230.368896,626.695312 
	C1232.228638,628.570068 1233.958496,631.779358 1233.694214,634.192993 
	C1233.461914,636.314087 1230.661621,638.507141 1228.508423,639.933655 
	C1227.191040,640.806458 1224.955322,640.385315 1223.131836,640.388184 
	C1192.470093,640.436157 1161.807983,640.391296 1131.146973,640.550415 
	C1125.580078,640.579285 1121.246460,638.835693 1117.445312,634.752502 
	C1113.372681,630.377686 1108.834229,626.436646 1104.897827,622.686157 
	C1096.166626,631.088257 1087.206909,639.705933 1078.254272,648.330933 
	C1077.054443,649.486938 1075.886719,650.676575 1074.710693,651.857056 
	C1071.574829,655.004700 1068.410034,657.740173 1063.351685,656.072449 
	C1058.713867,654.543335 1057.873657,650.707520 1057.006470,646.783264 
	C1054.140503,633.813538 1051.144287,620.869873 1048.486572,607.857300 
	C1041.538330,573.839233 1034.747681,539.788879 1027.864502,505.757477 
	C1027.648926,504.691895 1027.106201,503.692566 1026.554443,502.236206 
	C1022.616699,534.298584 1018.804443,565.761597 1014.874695,597.209900 
	C1011.354553,625.380371 1007.706787,653.534851 1004.111877,681.695984 
	C1001.018982,705.924805 997.984375,730.161255 994.798584,754.377869 
	C993.238831,766.234375 991.426147,778.058289 989.660950,789.886963 
	C989.003967,794.289429 987.513062,797.996826 982.032166,798.003479 
	C977.090332,798.009460 975.052673,796.165771 973.924927,789.874207 
	C966.056030,745.977051 958.183105,702.080383 950.419556,658.164490 
	C946.569031,636.383423 942.947266,614.561829 939.034424,592.369812 
z"/>
<path fill="#DE0D79" opacity="1.000000" stroke="none" 
	d="
M557.180908,139.017517 
	C584.981384,133.016129 606.719727,145.083405 615.466187,173.091690 
	C624.799866,202.980103 619.613281,231.799072 603.469727,258.201965 
	C594.224731,273.322266 578.972656,277.979095 562.622864,271.140015 
	C527.981506,256.649597 510.817688,228.361664 518.330322,190.491959 
	C519.841309,182.875259 522.142761,175.279053 525.152466,168.124695 
	C531.188904,153.775696 541.456360,143.565277 557.180908,139.017517 
z"/>
<path fill="#FD81B5" opacity="1.000000" stroke="none" 
	d="
M74.832703,901.968018 
	C72.424431,901.651978 69.781189,902.533447 69.913040,898.924255 
	C70.044197,895.334045 72.671288,896.230347 74.633789,896.226501 
	C96.453484,896.184204 118.287872,895.722046 140.087997,896.378662 
	C154.837769,896.822937 169.524307,898.634277 182.959518,905.961060 
	C200.079315,915.297241 209.594360,935.735046 207.609039,954.551575 
	C204.688614,982.230774 184.179672,995.827698 162.817352,998.764954 
	C150.764832,1000.422119 138.382492,999.689514 126.148026,1000.007141 
	C123.692642,1000.070923 121.234184,1000.016235 118.118179,1000.016235 
	C118.118179,1005.080261 118.047409,1009.691895 118.132362,1014.300720 
	C118.331474,1025.103760 118.080338,1035.949341 118.981522,1046.696289 
	C120.108368,1060.134399 124.074577,1063.585327 137.915588,1064.885376 
	C141.169266,1065.191040 142.548706,1066.234741 141.397324,1070.028198 
	C138.265732,1070.266113 135.000854,1070.716675 131.734329,1070.728882 
	C112.771721,1070.799683 93.808723,1070.767456 74.845863,1070.770508 
	C74.013062,1070.770630 73.041924,1071.052246 72.378151,1070.718994 
	C71.229095,1070.141968 70.270500,1069.185547 69.232002,1068.388306 
	C70.144539,1067.287354 71.024246,1065.257935 71.974556,1065.224243 
	C86.976906,1064.693604 91.039291,1057.606689 91.048920,1041.786865 
	C91.072723,1002.645142 91.109337,963.503296 91.048531,924.361694 
	C91.042625,920.560425 90.662376,916.712097 89.989388,912.969421 
	C88.528877,904.846924 82.259483,902.869934 74.832703,901.968018 
M134.555298,904.833130 
	C134.055801,904.829895 133.556244,904.819885 133.056824,904.824402 
	C121.438545,904.929016 118.289246,907.828369 118.194359,919.645386 
	C118.011230,942.452881 118.185654,965.263123 118.021080,988.070862 
	C117.998634,991.181641 119.252686,992.374023 121.930290,992.469421 
	C128.073761,992.688293 134.243271,993.133728 140.365524,992.804504 
	C156.501694,991.936951 169.367783,985.646606 175.631180,969.689453 
	C179.555008,959.692688 179.869629,949.257935 178.338852,938.753540 
	C177.168579,930.723022 174.393036,923.358398 168.923660,917.129395 
	C159.992599,906.957825 148.355453,904.331848 134.555298,904.833130 
z"/>
<path fill="#FD7EB3" opacity="1.000000" stroke="none" 
	d="
M452.178223,945.996948 
	C452.187195,936.002136 452.183044,926.506470 452.211731,917.010986 
	C452.244629,906.123047 449.399261,902.808472 438.707581,901.075623 
	C436.896149,900.781921 433.550171,902.079712 434.197693,898.450195 
	C434.385010,897.399963 437.314301,896.602051 439.102692,896.112976 
	C449.813629,893.184448 460.613159,890.567200 471.268677,887.454224 
	C476.566040,885.906677 477.065674,885.911072 477.070190,891.442749 
	C477.097351,924.593933 477.104340,957.745178 477.113190,990.896362 
	C477.118073,1009.193787 477.079803,1027.491333 477.148468,1045.788574 
	C477.159027,1048.597656 477.466034,1051.435303 477.941833,1054.207153 
	C479.144653,1061.214478 481.849335,1063.447266 488.912170,1064.175537 
	C490.317474,1064.320312 491.602600,1065.630737 492.943146,1066.403687 
	C491.669434,1067.313477 490.480377,1068.847168 489.108459,1069.033203 
	C478.920959,1070.415527 468.690155,1071.474854 458.488464,1072.758667 
	C454.837952,1073.218018 453.073822,1071.624756 452.930420,1068.169922 
	C452.786591,1064.705322 452.898834,1061.229980 452.898834,1056.710449 
	C449.616486,1059.795654 447.267578,1062.470947 444.475159,1064.550903 
	C428.671661,1076.322510 411.293396,1076.730225 393.872284,1069.680298 
	C373.040833,1061.250366 364.176025,1043.607178 360.983826,1022.524170 
	C358.849152,1008.425842 360.443512,994.658752 365.890289,981.440674 
	C373.661621,962.581421 387.847168,951.967529 407.922363,948.909729 
	C424.544464,946.377869 439.279968,949.864380 452.179626,963.100525 
	C452.179626,956.889221 452.179626,951.692688 452.178223,945.996948 
M387.947479,1011.422791 
	C388.271240,1015.550476 388.461578,1019.693909 388.945770,1023.802673 
	C390.038544,1033.075684 391.859467,1042.142944 396.631378,1050.384521 
	C403.514832,1062.272827 416.583984,1067.430298 431.015167,1063.819946 
	C442.723236,1060.890869 452.129730,1048.633057 452.167206,1036.078491 
	C452.220337,1018.272461 452.206024,1000.466064 452.153961,982.660095 
	C452.148193,980.691833 451.983673,978.642334 451.424316,976.770508 
	C447.356506,963.158752 437.237854,956.737061 424.286713,955.261047 
	C411.822937,953.840454 400.183350,961.348022 394.880035,972.550171 
	C389.175018,984.600830 387.983185,997.401550 387.947479,1011.422791 
z"/>
<path fill="#C6167C" opacity="1.000000" stroke="none" 
	d="
M709.934387,1056.129639 
	C733.023621,1075.073975 783.998962,1071.783325 800.925049,1032.079956 
	C803.268738,1026.582397 805.250000,1020.930237 807.478149,1015.144287 
	C808.737366,1015.144287 810.185425,1015.144287 812.147766,1015.144287 
	C812.147766,1021.596130 812.142090,1027.887207 812.149109,1034.178345 
	C812.161316,1045.174927 812.277344,1056.173340 812.088501,1067.166382 
	C812.061951,1068.711304 810.558533,1070.230957 809.738708,1071.762329 
	C808.368835,1070.669678 806.968201,1069.612305 805.650269,1068.460205 
	C805.310486,1068.163086 805.222534,1067.571655 805.033447,1067.109497 
	C800.635071,1056.357422 797.222290,1055.217896 787.450745,1061.241211 
	C756.358459,1080.406982 712.292480,1078.374023 683.683350,1055.821045 
	C665.010559,1041.101074 655.120605,1021.209717 652.062500,997.741821 
	C648.757568,972.380615 652.919006,948.477051 667.275757,927.155579 
	C692.998474,888.953857 744.287354,877.139343 784.567566,899.577637 
	C786.312500,900.549744 788.022217,901.585876 789.735291,902.613953 
	C796.942322,906.939087 799.799500,906.157837 803.986267,898.659241 
	C805.477661,895.988159 806.346680,892.395630 811.426941,894.621704 
	C811.426941,896.307922 811.424011,898.257141 811.427368,900.206299 
	C811.451782,914.201660 811.556702,928.197815 811.400879,942.191162 
	C811.381775,943.905212 809.968811,945.603760 809.201782,947.309448 
	C807.898438,945.949158 805.928040,944.808533 805.396545,943.194092 
	C800.943970,929.669861 794.671387,917.386414 783.248413,908.304565 
	C760.908630,890.543335 716.599548,887.161377 696.553406,923.109131 
	C690.205322,934.492859 686.481323,946.672668 684.933167,959.462769 
	C682.400146,980.389282 682.256287,1001.290100 688.157043,1021.797424 
	C692.015930,1035.208740 698.610901,1046.982666 709.934387,1056.129639 
z"/>
<path fill="#C6167C" opacity="1.000000" stroke="none" 
	d="
M865.505249,964.439575 
	C868.624695,970.928955 869.338379,977.035400 864.274902,982.369568 
	C860.108032,986.759155 854.776733,987.616150 849.080933,985.797424 
	C840.501404,983.057739 837.153198,973.668274 841.583374,964.896729 
	C845.440857,957.259155 852.281250,953.125305 859.810608,950.160767 
	C874.820007,944.251221 890.251099,943.440308 905.829529,947.640076 
	C922.699280,952.187988 930.951416,963.939331 931.089539,983.608398 
	C931.228638,1003.421509 931.130798,1023.236267 931.198181,1043.050049 
	C931.208923,1046.202515 931.358948,1049.377441 931.761719,1052.501099 
	C932.922241,1061.499634 938.564026,1065.440063 947.593262,1063.915527 
	C948.955078,1063.685669 950.442444,1064.198730 951.877258,1065.135742 
	C944.090088,1071.915405 935.106018,1074.493774 925.446289,1073.562744 
	C914.766785,1072.533447 908.454346,1066.148682 907.010620,1055.020386 
	C892.498413,1071.315674 875.015686,1077.023682 854.468262,1072.021729 
	C841.959656,1068.976685 833.644897,1060.879150 831.216858,1048.011108 
	C828.763062,1035.006226 833.587952,1024.448730 844.029541,1016.554199 
	C855.067871,1008.208435 868.227478,1005.035278 881.351318,1001.946167 
	C888.298584,1000.310913 895.320068,998.981079 902.329651,997.625061 
	C905.307861,997.048828 906.906494,995.920959 906.697266,992.413025 
	C906.261597,985.110718 906.686768,977.744751 906.027954,970.471130 
	C905.083557,960.045288 899.877014,954.786560 889.540833,952.646118 
	C882.107910,951.106873 874.951355,952.237427 868.112427,955.212708 
	C863.032532,957.422668 862.718872,958.880676 865.505249,964.439575 
M865.172607,1017.651489 
	C859.483826,1023.075684 857.643311,1030.111938 857.367188,1037.561401 
	C856.934143,1049.245483 862.858521,1058.162964 872.358704,1060.840576 
	C887.088928,1064.992554 902.624390,1056.622314 905.154541,1041.440063 
	C907.230896,1028.980591 906.693787,1016.085571 907.339844,1002.877258 
	C904.126587,1003.382935 902.164185,1003.611633 900.236389,1004.008240 
	C888.014648,1006.522766 875.717957,1008.857910 865.172607,1017.651489 
z"/>
<path fill="#FD80B4" opacity="1.000000" stroke="none" 
	d="
M224.140961,1035.736816 
	C215.925049,1009.101685 218.898666,984.714600 238.343597,964.386536 
	C251.625290,950.501648 269.247589,946.565369 287.931946,948.311340 
	C304.901062,949.896973 319.236115,957.097961 329.581573,971.045532 
	C340.580872,985.874817 343.595093,1002.777283 341.360321,1020.713806 
	C339.985138,1031.751587 336.215546,1042.042236 329.322021,1050.965942 
	C320.069305,1062.943604 307.958923,1070.435059 293.044769,1072.842407 
	C273.974792,1075.920654 256.279297,1072.599121 241.044769,1059.953613 
	C233.320068,1053.541626 228.086304,1045.300537 224.140961,1035.736816 
M270.898865,956.070801 
	C261.710632,958.843689 256.147369,965.216858 252.792770,973.960266 
	C246.580872,990.150818 247.579361,1007.026550 248.169159,1023.794495 
	C248.515350,1033.636719 250.657883,1043.241699 255.395996,1052.074341 
	C261.378143,1063.226074 271.336456,1067.272339 283.250061,1066.872070 
	C294.488068,1066.494385 302.737213,1061.046143 307.429016,1050.536987 
	C311.936005,1040.441895 312.684814,1029.735596 313.489899,1018.898804 
	C314.562439,1004.461914 313.880829,990.277466 309.281616,976.530701 
	C303.345001,958.786682 289.909393,951.578613 270.898865,956.070801 
z"/>
<path fill="#FD7FB4" opacity="1.000000" stroke="none" 
	d="
M506.942261,1011.009766 
	C506.970306,993.234497 511.408630,977.207886 523.943909,965.003235 
	C541.773193,947.644348 563.696411,943.851501 586.901489,951.079163 
	C609.288147,958.051880 621.934265,974.669922 625.847778,997.456970 
	C629.565063,1019.101868 625.953369,1039.446899 610.421997,1055.975952 
	C596.878113,1070.389893 579.677673,1075.294556 560.074829,1073.270264 
	C548.110596,1072.034790 537.390320,1068.352783 528.149170,1060.640503 
	C515.154358,1049.795410 509.049316,1035.428833 507.156708,1018.986450 
	C506.872284,1016.515503 507.003540,1013.996704 506.942261,1011.009766 
M537.207703,1039.107544 
	C538.496216,1042.874390 539.459290,1046.793091 541.133301,1050.380127 
	C546.502869,1061.885620 557.158875,1067.806396 570.350220,1066.963013 
	C581.584534,1066.244751 590.457397,1059.270386 594.289368,1047.478516 
	C601.789307,1024.399414 601.474182,1001.065369 595.307861,977.815308 
	C593.343506,970.408508 589.909973,963.480896 582.751160,959.273254 
	C563.008301,947.669556 541.596008,957.737244 537.074097,980.922302 
	C533.348755,1000.023132 533.135559,1019.163818 537.207703,1039.107544 
z"/>
<path fill="#C7177D" opacity="1.000000" stroke="none" 
	d="
M1156.677979,1058.921265 
	C1166.111572,1054.849609 1172.333618,1047.818970 1177.615356,1039.394531 
	C1179.070923,1040.099609 1180.342041,1040.715332 1181.470093,1041.261841 
	C1181.470093,1041.903198 1181.574585,1042.268921 1181.455200,1042.533691 
	C1170.006836,1067.915039 1148.052246,1075.499390 1124.822266,1073.763794 
	C1098.293213,1071.781860 1080.012329,1055.629150 1074.303101,1029.519165 
	C1069.291504,1006.599304 1071.212524,984.369385 1086.440674,965.114075 
	C1106.959229,939.169006 1149.570801,937.771118 1169.377808,962.384033 
	C1178.517578,973.741394 1182.008057,986.985046 1180.840576,1002.072571 
	C1167.302856,1002.072571 1154.030273,1002.072571 1140.757812,1002.072571 
	C1127.466553,1002.072571 1114.175293,1002.072571 1100.416870,1002.072571 
	C1099.698975,1018.616150 1100.096436,1034.429565 1109.418335,1048.510986 
	C1116.899292,1059.811523 1133.182983,1065.125610 1148.736206,1061.487915 
	C1151.312622,1060.885254 1153.794922,1059.881104 1156.677979,1058.921265 
M1122.607178,952.785583 
	C1107.819336,955.527649 1100.405518,975.506409 1100.987793,994.710693 
	C1118.565308,994.710693 1136.152344,994.710693 1153.678345,994.710693 
	C1155.807739,988.781067 1154.414307,975.966675 1150.784180,967.357361 
	C1145.887573,955.743958 1136.040039,950.444336 1122.607178,952.785583 
z"/>
<path fill="#D70F7B" opacity="1.000000" stroke="none" 
	d="
M468.997314,159.681381 
	C485.819305,156.389435 499.730042,163.621109 505.574799,179.584396 
	C512.731323,199.130630 511.275848,218.505585 501.456665,236.934967 
	C496.278046,246.654541 487.857391,251.929504 476.692383,251.670044 
	C465.686554,251.414291 457.855133,245.748764 453.157532,235.930634 
	C446.024261,221.021790 441.618896,205.419708 443.980469,188.756592 
	C446.048645,174.163742 454.153412,164.151016 468.997314,159.681381 
z"/>
<path fill="#C8187E" opacity="1.000000" stroke="none" 
	d="
M977.492798,970.057373 
	C974.414612,958.491333 973.809814,957.969727 960.150818,955.364929 
	C960.150818,953.919067 960.150818,952.395935 960.150818,951.433472 
	C973.726013,949.343750 986.976257,947.218262 1000.272522,945.435913 
	C1001.235291,945.306824 1003.441040,947.618408 1003.518738,948.890076 
	C1003.873535,954.693665 1003.674500,960.531067 1004.541626,966.857849 
	C1005.876221,964.969604 1007.156677,963.040222 1008.554199,961.199707 
	C1018.320496,948.337769 1031.085205,942.863647 1047.080200,946.092468 
	C1054.150024,947.519531 1059.661743,951.362854 1062.197754,958.497437 
	C1064.595337,965.242798 1062.622070,972.021301 1057.258667,975.946289 
	C1051.609619,980.080383 1043.226196,979.910095 1037.670898,975.548340 
	C1032.713501,971.655945 1031.142822,964.487915 1033.835205,957.905945 
	C1034.329224,956.698425 1034.938965,955.538330 1035.679932,953.964233 
	C1029.176758,952.397156 1023.794861,954.697571 1019.279663,958.280151 
	C1009.736694,965.851990 1003.839417,975.656189 1003.780151,988.230835 
	C1003.688965,1007.557373 1003.716980,1026.884644 1003.731445,1046.211670 
	C1003.742004,1060.385498 1007.878418,1064.602051 1022.065063,1065.046143 
	C1022.875671,1065.071411 1023.683350,1065.188843 1025.068115,1065.316406 
	C1024.959473,1066.917725 1024.864746,1068.313232 1024.088989,1069.555542 
	C1022.764160,1069.272827 1022.120483,1069.030762 1021.476501,1069.029907 
	C1001.867126,1069.004028 982.257751,1068.983887 962.648560,1069.039429 
	C961.425354,1069.042847 960.203857,1069.669312 958.981628,1070.005859 
	C957.456238,1065.721558 957.623047,1065.440674 961.951294,1065.004517 
	C972.588501,1063.932739 974.998169,1061.788818 977.586182,1051.134644 
	C978.433411,1049.933594 978.950562,1049.200439 978.951843,1048.466431 
	C978.995544,1023.411865 979.008911,998.357239 978.928589,973.302917 
	C978.925110,972.219543 977.992554,971.139160 977.492798,970.057373 
z"/>
<path fill="#D30F7B" opacity="1.000000" stroke="none" 
	d="
M380.292084,203.445724 
	C390.822998,186.524918 413.479004,184.450027 425.843842,199.604004 
	C437.003204,213.280609 441.762909,229.250671 436.775818,246.648254 
	C435.180634,252.213120 431.200134,257.651703 426.972168,261.775330 
	C420.433899,268.152252 412.129913,268.713074 403.808563,264.796844 
	C388.187042,257.445038 374.144379,230.769821 377.015381,213.691772 
	C377.584381,210.307281 379.055023,207.074356 380.292084,203.445724 
z"/>
<path fill="#D3107B" opacity="1.000000" stroke="none" 
	d="
M328.723389,249.902725 
	C338.864929,233.092834 357.690399,230.652924 370.897430,244.614639 
	C380.313782,254.569031 384.344604,266.812134 381.741608,280.440125 
	C378.071808,299.653503 358.662872,306.534821 343.032959,294.726776 
	C331.385529,285.927429 320.771881,267.554321 328.723389,249.902725 
z"/>
<path fill="#D3107B" opacity="1.000000" stroke="none" 
	d="
M331.492981,336.405945 
	C322.319000,348.049347 310.254181,349.990448 298.281128,342.010468 
	C284.789124,333.018066 279.095947,316.538483 284.739410,302.812347 
	C291.355713,286.719971 309.666229,281.865417 323.035156,292.946014 
	C333.393311,301.531219 341.845490,320.350403 331.492981,336.405945 
z"/>
<path fill="#B9006A" opacity="1.000000" stroke="none" 
	d="
M977.430298,970.517822 
	C977.992554,971.139160 978.925110,972.219543 978.928589,973.302917 
	C979.008911,998.357239 978.995544,1023.411865 978.951843,1048.466431 
	C978.950562,1049.200439 978.433411,1049.933594 977.806519,1050.806641 
	C977.426697,1024.290161 977.397217,997.634216 977.430298,970.517822 
z"/>
<path fill="#FD7EB3" opacity="1.000000" stroke="none" 
	d="
M973.538818,519.329224 
	C968.532837,514.735229 968.131592,512.308899 971.261108,507.531647 
	C974.373535,502.780548 976.120056,502.429535 981.090149,505.401978 
	C982.064148,505.984497 983.218567,506.265289 984.610107,506.825928 
	C981.232666,511.029968 977.534912,515.093323 973.538818,519.329224 
z"/>
<path fill="#B9006A" opacity="1.000000" stroke="none" 
	d="
M959.434265,1070.146484 
	C960.203857,1069.669312 961.425354,1069.042847 962.648560,1069.039429 
	C982.257751,1068.983887 1001.867126,1069.004028 1021.476501,1069.029907 
	C1022.120483,1069.030762 1022.764160,1069.272827 1023.701233,1069.699097 
	C1002.625244,1070.092896 981.256104,1070.189941 959.434265,1070.146484 
z"/>
<path fill="#C6167C" opacity="1.000000" stroke="none" 
	d="
M399.704712,641.424072 
	C411.068237,641.113831 422.568542,641.074158 434.521484,641.304016 
	C434.974121,641.573608 434.962677,641.977539 434.962677,641.977539 
	C423.880798,642.036133 412.798920,642.094666 401.249817,642.293823 
	C400.468872,642.187744 400.155151,641.941223 399.704712,641.424072 
z"/>
<path fill="#05D3DA" opacity="1.000000" stroke="none" 
	d="
M820.958984,510.555939 
	C816.974915,508.284576 813.218079,505.341339 808.953613,503.898834 
	C802.495483,501.714233 795.734802,500.292236 789.006348,499.081360 
	C783.853088,498.153961 778.551025,498.053558 773.058716,496.833801 
	C772.818726,488.588348 772.821594,481.094391 772.854858,473.600555 
	C772.909058,461.379272 764.511108,452.911560 752.303406,452.917084 
	C735.816711,452.924530 719.330017,452.941833 702.843323,452.954529 
	C701.255188,452.955750 699.666992,452.954681 697.934387,452.954681 
	C697.934387,435.934082 697.934387,419.689392 697.934387,402.871277 
	C700.033325,402.871277 701.816284,402.873138 703.599304,402.870972 
	C720.086060,402.850830 736.573059,402.873291 753.059570,402.794617 
	C764.554382,402.739746 772.812927,394.403442 772.845764,382.883209 
	C772.894165,365.896820 772.873230,348.910309 772.905457,331.923859 
	C772.908752,330.170990 773.071960,328.418457 773.171631,326.456177 
	C775.163147,326.346222 776.631226,326.197021 778.099548,326.194794 
	C790.755981,326.175568 803.415283,326.335205 816.067078,326.092804 
	C820.051514,326.016449 821.173401,327.175446 821.122070,331.165070 
	C820.903687,348.148651 821.023560,365.136627 821.029724,382.123016 
	C821.034241,394.661133 829.078796,402.792877 841.539307,402.810699 
	C858.359192,402.834747 875.179077,402.813385 891.998962,402.831696 
	C893.592468,402.833435 895.185913,402.978607 896.583679,403.047546 
	C896.857727,403.885406 897.045349,404.192444 897.046143,404.500031 
	C897.084717,418.653931 896.878052,432.813934 897.255188,446.958466 
	C897.387329,451.914185 895.674194,453.552673 890.927429,452.666748 
	C889.120056,445.896118 885.019409,446.070648 879.985413,448.233276 
	C877.134766,449.457947 874.640991,451.513123 871.527466,453.091980 
	C860.334717,452.984222 849.600464,452.919342 838.867798,453.021332 
	C836.610474,453.042725 834.358948,453.676910 831.806946,453.863403 
	C826.421997,449.474487 824.635132,449.643402 820.492554,454.931732 
	C816.958191,459.443787 816.258423,464.606964 817.625488,470.015259 
	C818.640076,474.029388 820.029724,477.948761 821.163879,482.382263 
	C821.036560,492.088074 820.997803,501.322021 820.958984,510.555939 
z"/>
<path fill="#F8F9FB" opacity="1.000000" stroke="none" 
	d="
M891.094238,452.992981 
	C895.674194,453.552673 897.387329,451.914185 897.255188,446.958466 
	C896.878052,432.813934 897.084717,418.653931 897.046143,404.500031 
	C897.045349,404.192444 896.857727,403.885406 896.583679,403.047546 
	C895.185913,402.978607 893.592468,402.833435 891.998962,402.831696 
	C875.179077,402.813385 858.359192,402.834747 841.539307,402.810699 
	C829.078796,402.792877 821.034241,394.661133 821.029724,382.123016 
	C821.023560,365.136627 820.903687,348.148651 821.122070,331.165070 
	C821.173401,327.175446 820.051514,326.016449 816.067078,326.092804 
	C803.415283,326.335205 790.755981,326.175568 778.099548,326.194794 
	C776.631226,326.197021 775.163147,326.346222 773.171631,326.456177 
	C773.071960,328.418457 772.908752,330.170990 772.905457,331.923859 
	C772.873230,348.910309 772.894165,365.896820 772.845764,382.883209 
	C772.812927,394.403442 764.554382,402.739746 753.059570,402.794617 
	C736.573059,402.873291 720.086060,402.850830 703.599304,402.870972 
	C701.816284,402.873138 700.033325,402.871277 697.934387,402.871277 
	C697.934387,419.689392 697.934387,435.934082 697.934387,452.954681 
	C699.666992,452.954681 701.255188,452.955750 702.843323,452.954529 
	C719.330017,452.941833 735.816711,452.924530 752.303406,452.917084 
	C764.511108,452.911560 772.909058,461.379272 772.854858,473.600555 
	C772.821594,481.094391 772.818726,488.588348 772.749878,496.549988 
	C768.823364,496.319397 764.949219,495.621063 760.637695,494.430939 
	C760.179749,487.618988 760.436951,481.279724 760.003723,474.988037 
	C759.827271,472.425842 758.151978,469.966888 756.947266,467.224915 
	C755.556519,466.521820 754.377075,466.054718 753.197693,465.587646 
	C741.565369,465.451599 729.933228,465.286224 718.300598,465.190521 
	C711.306824,465.132935 704.311584,465.241669 697.317993,465.171509 
	C688.578674,465.083832 684.812927,461.342316 684.801819,452.710571 
	C684.780334,436.057465 684.806580,419.404266 684.855896,402.751221 
	C684.881897,393.960907 688.759644,390.121155 697.731934,390.096466 
	C714.717896,390.049683 731.704224,390.111176 748.690308,390.081757 
	C757.884399,390.065826 760.177795,387.709595 760.175415,378.499115 
	C760.171021,361.346466 760.117493,344.193604 760.178467,327.041199 
	C760.212097,317.595917 764.174561,313.693573 773.617920,313.670593 
	C789.438232,313.632111 805.258789,313.636566 821.079102,313.673767 
	C829.597168,313.693787 833.959534,318.075806 833.968201,326.613159 
	C833.986511,344.598389 833.958740,362.583710 833.936829,380.568970 
	C833.928101,387.738739 836.254761,390.053864 843.538574,390.057434 
	C861.357422,390.066223 879.176270,390.069611 896.995117,390.086578 
	C906.537720,390.095673 909.926453,393.389404 909.967651,402.966583 
	C910.035583,418.786713 910.011414,434.607361 909.988098,450.427734 
	C909.971497,461.678741 906.345825,465.196075 894.919800,465.165131 
	C893.920654,465.162445 892.921448,465.156708 891.458252,464.674805 
	C891.027588,460.462494 891.060913,456.727722 891.094238,452.992981 
z"/>
<path fill="#DE0D79" opacity="1.000000" stroke="none" 
	d="
M727.120972,527.624023 
	C727.593323,525.760742 728.504700,524.159912 728.968384,522.438538 
	C729.415649,520.778198 730.151672,518.553101 729.444824,517.347839 
	C727.517883,514.062134 727.997192,511.228821 728.815002,507.696594 
	C730.567688,500.126617 731.784851,499.193726 739.251526,499.669739 
	C742.011047,499.845642 746.041382,498.438446 747.522156,496.353912 
	C750.275879,492.477356 753.346802,492.289673 757.588867,493.370850 
	C757.336853,494.531006 756.624695,495.275818 756.059143,496.119019 
	C754.686523,498.165710 752.375549,500.260040 752.379517,502.331482 
	C752.382507,503.894348 755.383118,505.451447 757.049438,507.011108 
	C758.038208,510.477631 759.026978,513.944153 760.030396,517.787231 
	C760.044983,518.163757 759.981812,517.997925 759.587280,518.091797 
	C758.821899,518.686768 758.130188,519.186096 758.127258,519.689392 
	C758.046631,533.572632 757.995422,547.456543 758.108093,561.338989 
	C758.115417,562.233704 759.477234,563.117310 760.396362,564.314453 
	C761.926819,571.598511 765.731445,574.765259 773.041687,574.797607 
	C786.692444,574.857971 800.343445,574.846802 813.994385,574.865417 
	C814.512024,588.368774 810.123291,600.263794 800.549927,609.559631 
	C785.255798,624.410461 762.545776,622.409729 754.301758,601.151245 
	C750.468018,591.265381 749.432678,580.297546 747.093323,569.828125 
	C745.148560,561.124695 743.151917,552.432861 741.494629,543.435120 
	C744.807861,545.622986 746.662964,545.661987 747.089722,541.073669 
	C747.241455,539.441711 748.313232,537.828064 749.200745,536.347290 
	C750.550232,534.095581 752.427673,532.103821 753.435852,529.727905 
	C753.934082,528.553772 753.413025,526.425720 752.559631,525.371765 
	C751.927490,524.591064 749.414795,524.175232 748.770142,524.750854 
	C744.631958,528.445679 740.778320,532.459106 736.831177,536.367859 
	C733.675476,533.523193 730.519836,530.678467 727.120972,527.624023 
z"/>
<path fill="#FB83B6" opacity="1.000000" stroke="none" 
	d="
M890.927429,452.666748 
	C891.060913,456.727722 891.027588,460.462494 891.001343,464.668549 
	C893.944458,474.590912 896.818115,484.061920 899.832581,493.487823 
	C903.312073,504.367889 907.682068,515.035522 910.182190,526.129700 
	C911.715210,532.932251 910.465637,540.361938 910.465637,548.423889 
	C908.303162,543.792480 906.537537,540.011047 904.423096,535.712219 
	C903.465271,534.388245 902.856323,533.581726 902.167053,532.444946 
	C901.392639,531.074829 900.698669,530.034790 900.004639,528.994812 
	C899.373352,529.876892 899.300171,530.399536 899.521484,530.716858 
	C900.155151,531.625305 900.908325,532.450500 901.698364,533.618164 
	C902.398010,534.760254 903.013672,535.592651 903.629333,536.425049 
	C905.268799,542.437500 906.908203,548.449951 908.309021,554.740723 
	C904.623047,552.654541 900.017029,550.920532 902.990906,545.346313 
	C897.563599,542.393188 897.563599,542.393188 898.656738,536.727905 
	C894.332581,535.476379 892.135498,532.556396 891.816223,527.858215 
	C891.720154,526.445190 889.844666,525.072632 888.631104,523.831299 
	C885.182251,520.303833 880.396057,517.745911 881.651611,511.312317 
	C881.933472,509.868164 879.768738,507.593628 878.254028,506.230652 
	C875.683228,503.917328 872.526733,502.243256 870.023682,499.870758 
	C868.601501,498.522797 867.417542,496.410400 867.117859,494.487732 
	C866.229980,488.791199 864.206665,485.607941 858.468018,484.839050 
	C851.878357,483.956055 846.978638,481.929077 846.803223,473.820282 
	C841.802795,476.537079 841.739197,480.622589 841.309021,484.673492 
	C841.128662,486.372681 840.459900,488.215240 839.457825,489.586975 
	C837.889709,491.733643 835.849854,493.535736 833.674072,495.661072 
	C829.309692,491.195679 825.281006,486.553040 821.252319,481.910370 
	C820.029724,477.948761 818.640076,474.029388 817.625488,470.015259 
	C816.258423,464.606964 816.958191,459.443787 820.492554,454.931732 
	C824.635132,449.643402 826.421997,449.474487 831.923462,454.170319 
	C835.588562,458.152466 838.839233,461.662354 841.921387,465.417542 
	C843.339050,467.568085 844.641235,469.841675 846.557068,471.319977 
	C860.776001,482.291382 875.182800,492.994019 884.527405,508.932587 
	C887.713257,514.366577 891.552063,519.419495 895.131958,524.619446 
	C895.983093,525.855713 896.992615,526.982910 897.929321,528.160339 
	C898.487061,526.546448 898.257324,525.434082 897.664856,524.570801 
	C891.366150,515.393250 885.326782,506.013397 878.580200,497.174530 
	C871.888611,488.407837 865.906311,479.634308 866.913391,467.891754 
	C866.987244,467.030579 866.264893,466.101105 866.216675,464.996094 
	C868.342651,460.923950 870.164551,457.059113 871.986450,453.194244 
	C874.640991,451.513123 877.134766,449.457947 879.985413,448.233276 
	C885.019409,446.070648 889.120056,445.896118 890.927429,452.666748 
M832.537659,478.964600 
	C837.344238,476.580566 837.258179,471.759216 838.434509,468.139496 
	C832.855408,465.992737 827.651489,463.990356 822.635925,462.060455 
	C823.301758,466.376740 824.027039,471.078949 824.752380,475.781189 
	C824.578674,475.740479 824.404907,475.699799 824.231201,475.659119 
	C825.279968,477.821075 826.328796,479.983032 827.627869,482.660950 
	C828.736267,481.858124 830.379639,480.667816 832.537659,478.964600 
M827.337952,459.378723 
	C827.931152,459.778839 828.524353,460.178925 829.117554,460.579010 
	C829.258667,460.190155 829.399780,459.801300 829.540833,459.412415 
	C828.817627,459.199219 828.094360,458.986023 827.337952,459.378723 
z"/>
<path fill="#F7F8FA" opacity="1.000000" stroke="none" 
	d="
M813.997559,574.460938 
	C800.343445,574.846802 786.692444,574.857971 773.041687,574.797607 
	C765.731445,574.765259 761.926819,571.598511 760.426758,563.845825 
	C760.173767,548.045227 760.077759,533.021545 759.981812,517.997925 
	C759.981812,517.997925 760.044983,518.163757 760.133667,518.160522 
	C764.300476,520.753784 768.378601,523.350403 772.710571,526.574585 
	C772.964539,538.758484 772.964539,550.314697 772.964539,562.533447 
	C787.476929,562.533447 801.250061,562.533447 815.023193,562.533447 
	C814.682434,566.374451 814.341614,570.215515 813.997559,574.460938 
z"/>
<path fill="#08D3DB" opacity="1.000000" stroke="none" 
	d="
M815.205017,562.147827 
	C801.250061,562.533447 787.476929,562.533447 772.964539,562.533447 
	C772.964539,550.314697 772.964539,538.758484 773.019531,526.765015 
	C784.822021,527.840454 795.690491,531.285156 804.141357,540.215637 
	C805.381470,541.526123 806.800964,542.868835 808.409180,543.595093 
	C816.810120,547.389160 818.103760,553.772095 815.205017,562.147827 
z"/>
<path fill="#DE0E77" opacity="1.000000" stroke="none" 
	d="
M834.110962,497.077545 
	C843.340942,503.745728 849.996521,512.489746 855.263123,522.514221 
	C858.585449,528.837769 862.399414,534.921814 866.281982,540.926331 
	C869.316650,545.619385 869.896484,550.519775 868.507568,555.726501 
	C867.307678,560.224548 866.351562,564.888977 864.401611,569.066162 
	C858.990601,580.658081 860.524292,592.104797 864.376099,603.560730 
	C868.011719,614.373840 868.467346,625.284485 866.013916,636.355164 
	C865.746826,637.560608 864.966309,638.652283 863.343384,639.457764 
	C863.297058,638.539307 863.020447,637.561523 863.239441,636.711426 
	C865.987122,626.046021 864.475586,615.553772 861.507324,605.287231 
	C856.619934,588.383301 856.085815,571.282288 857.639465,553.897766 
	C858.224487,547.351562 856.780579,540.888977 851.617310,536.094177 
	C845.894775,530.780029 839.993347,525.658630 834.043091,519.692322 
	C833.981201,511.646790 834.046082,504.362152 834.110962,497.077545 
z"/>
<path fill="#FBFBFC" opacity="1.000000" stroke="none" 
	d="
M663.156372,642.530396 
	C677.726135,642.197449 692.427917,642.164490 707.606262,642.148071 
	C705.853821,656.022644 703.624817,669.880615 701.160339,685.203003 
	C685.644165,672.219788 674.089783,657.868774 663.156372,642.530396 
z"/>
<path fill="#F7F8FA" opacity="1.000000" stroke="none" 
	d="
M834.022095,496.871765 
	C834.046082,504.362152 833.981201,511.646790 833.871460,519.387268 
	C829.611389,516.931335 825.396179,514.019592 821.069946,510.831848 
	C820.997803,501.322021 821.036560,492.088074 821.163818,482.382263 
	C825.281006,486.553040 829.309692,491.195679 833.618286,496.028687 
	C833.898132,496.219086 833.933167,496.666016 834.022095,496.871765 
z"/>
<path fill="#C84980" opacity="1.000000" stroke="none" 
	d="
M453.298798,630.999756 
	C464.073761,616.098267 467.140289,597.845093 473.665466,581.057129 
	C478.359283,568.980835 482.075897,556.524780 486.438232,543.950073 
	C485.419617,549.241577 484.713226,555.000244 482.869873,560.368591 
	C475.843109,580.832336 468.627045,601.236633 461.027649,621.492798 
	C459.679535,625.086182 456.165985,627.867126 453.298798,630.999756 
z"/>
<path fill="#E10C78" opacity="1.000000" stroke="none" 
	d="
M736.938232,536.665405 
	C740.778320,532.459106 744.631958,528.445679 748.770142,524.750854 
	C749.414795,524.175232 751.927490,524.591064 752.559631,525.371765 
	C753.413025,526.425720 753.934082,528.553772 753.435852,529.727905 
	C752.427673,532.103821 750.550232,534.095581 749.200745,536.347290 
	C748.313232,537.828064 747.241455,539.441711 747.089722,541.073669 
	C746.662964,545.661987 744.807861,545.622986 741.473083,543.067688 
	C739.771851,540.988403 738.408569,538.975708 736.938232,536.665405 
z"/>
<path fill="#CC5592" opacity="1.000000" stroke="none" 
	d="
M501.256378,615.875854 
	C501.816315,617.559937 502.779694,619.394531 503.101227,621.335510 
	C507.953461,650.625854 512.721375,679.930237 517.412781,709.625305 
	C515.920654,704.499573 514.139526,699.044800 513.195374,693.448853 
	C509.066162,668.973022 505.168335,644.458008 501.237518,619.949036 
	C501.036713,618.696777 501.309204,617.368652 501.256378,615.875854 
z"/>
<path fill="#CC5592" opacity="1.000000" stroke="none" 
	d="
M490.793976,546.274841 
	C492.660156,555.481079 494.310913,564.920898 495.825745,574.382446 
	C497.895203,587.307922 499.861267,600.249878 501.847168,613.609985 
	C500.913696,611.565002 499.588013,609.164062 499.164642,606.613281 
	C496.788574,592.297729 494.559601,577.956421 492.432068,563.601440 
	C491.592529,557.936890 491.144379,552.214233 490.793976,546.274841 
z"/>
<path fill="#DE0E77" opacity="1.000000" stroke="none" 
	d="
M757.260376,506.686279 
	C755.383118,505.451447 752.382507,503.894348 752.379517,502.331482 
	C752.375549,500.260040 754.686523,498.165710 756.059143,496.119019 
	C756.624695,495.275818 757.336853,494.531006 757.988708,493.371307 
	C757.996033,491.934143 757.996887,490.867065 757.997925,488.949951 
	C757.997864,485.399933 757.997742,482.699951 757.997559,480.000000 
	C758.168579,477.820221 758.339661,475.640411 758.247681,472.828369 
	C757.709290,470.617706 757.433960,469.039337 757.158630,467.460938 
	C758.151978,469.966888 759.827271,472.425842 760.003723,474.988037 
	C760.436951,481.279724 760.179749,487.618988 760.237061,494.396179 
	C759.339661,498.689301 758.405518,502.525360 757.260376,506.686279 
z"/>
<path fill="#C84980" opacity="1.000000" stroke="none" 
	d="
M904.698303,580.325134 
	C905.404785,580.068848 905.873047,580.086548 906.692749,580.113342 
	C904.103577,590.585510 901.163147,601.048584 898.222534,611.511658 
	C897.338257,614.657959 896.453796,617.804260 895.569397,620.950562 
	C895.133179,620.842163 894.696960,620.733765 894.260681,620.625366 
	C897.660522,607.283264 901.060303,593.941162 904.698303,580.325134 
z"/>
<path fill="#C84980" opacity="1.000000" stroke="none" 
	d="
M549.236816,706.015869 
	C552.382690,692.531555 555.528564,679.047241 558.838684,665.212952 
	C559.130066,666.567810 559.683350,668.371399 559.314819,669.961365 
	C556.967773,680.087341 554.417542,690.166321 551.662476,700.836182 
	C551.272400,701.937500 551.154236,702.463257 551.036011,702.989014 
	C550.875244,703.854797 550.714539,704.720520 550.102539,705.798157 
	C549.651367,706.010010 549.236877,706.015869 549.236816,706.015869 
z"/>
<path fill="#CC5592" opacity="1.000000" stroke="none" 
	d="
M549.052246,706.352417 
	C549.236877,706.015869 549.651367,706.010010 549.858582,706.025146 
	C547.321045,717.633118 544.576355,729.226013 541.481201,740.907593 
	C543.709839,729.560608 546.288757,718.124817 549.052246,706.352417 
z"/>
<path fill="#F7F8FA" opacity="1.000000" stroke="none" 
	d="
M885.930542,652.537109 
	C885.503235,653.226624 885.216553,653.622192 884.481018,654.637329 
	C887.716980,644.163330 890.734375,634.396667 893.751831,624.630005 
	C894.272095,624.797791 894.792358,624.965576 895.312622,625.133362 
	C892.232117,634.169983 889.151672,643.206543 885.930542,652.537109 
z"/>
<path fill="#CC5592" opacity="1.000000" stroke="none" 
	d="
M517.873413,716.220703 
	C519.543762,723.751587 520.930054,731.518005 522.234619,739.671387 
	C520.811462,734.257385 519.398499,728.471619 518.167725,722.647217 
	C517.742065,720.632751 517.769104,718.522644 517.873413,716.220703 
z"/>
<path fill="#CC5592" opacity="1.000000" stroke="none" 
	d="
M562.462646,651.032654 
	C563.597351,644.301941 565.089966,637.441223 566.817078,630.314209 
	C567.051514,630.047974 567.143555,630.133850 567.101746,630.492432 
	C567.044006,631.575745 567.028076,632.300415 567.012085,633.025085 
	C565.614929,638.984253 564.217712,644.943420 562.462646,651.032654 
z"/>
<path fill="#C84980" opacity="1.000000" stroke="none" 
	d="
M435.383850,641.995117 
	C434.962677,641.977539 434.974121,641.573608 434.985504,641.371948 
	C439.757965,638.795288 444.519043,636.420349 449.622803,633.988403 
	C447.344543,640.303406 441.782867,641.522583 435.383850,641.995117 
z"/>
<path fill="#C84980" opacity="1.000000" stroke="none" 
	d="
M567.944397,624.858276 
	C568.535339,624.846863 569.418945,624.577393 569.671692,624.864136 
	C572.106018,627.625671 574.434082,630.480835 576.928467,633.611816 
	C574.559875,631.999878 572.055481,630.085449 569.119141,627.723022 
	C568.439636,626.469421 568.192017,625.663818 567.944397,624.858276 
z"/>
<path fill="#CC5592" opacity="1.000000" stroke="none" 
	d="
M567.747559,625.177185 
	C568.192017,625.663818 568.439636,626.469421 568.817749,627.561035 
	C568.650940,628.365234 568.353577,628.883423 567.800598,629.723328 
	C567.544922,630.045044 567.143555,630.133850 567.143555,630.133850 
	C567.143555,630.133850 567.051514,630.047974 567.005493,630.005066 
	C567.156555,628.473450 567.353638,626.984802 567.747559,625.177185 
z"/>
<path fill="#CC5592" opacity="1.000000" stroke="none" 
	d="
M517.491394,712.232483 
	C517.818848,712.730408 517.955017,713.443237 518.037781,714.514282 
	C517.756287,714.064087 517.528137,713.255737 517.491394,712.232483 
z"/>
<path fill="#C84980" opacity="1.000000" stroke="none" 
	d="
M567.101746,630.492432 
	C567.143555,630.133850 567.544922,630.045044 567.749023,630.024902 
	C567.796692,630.857117 567.640320,631.709473 567.247986,632.793457 
	C567.028076,632.300415 567.044006,631.575745 567.101746,630.492432 
z"/>
<path fill="#CC5592" opacity="1.000000" stroke="none" 
	d="
M523.129883,746.197632 
	C523.470093,746.662476 523.752014,747.476135 524.071655,748.613403 
	C523.763367,748.140259 523.417419,747.343323 523.129883,746.197632 
z"/>
<path fill="#C84980" opacity="1.000000" stroke="none" 
	d="
M577.105408,634.252075 
	C577.473145,634.307739 577.862244,634.679626 578.351562,635.304138 
	C578.010071,635.227356 577.568420,634.897827 577.105408,634.252075 
z"/>
<path fill="#C84980" opacity="1.000000" stroke="none" 
	d="
M579.393188,636.873108 
	C579.804810,636.881958 580.215759,637.181091 580.722778,637.716370 
	C580.343445,637.689514 579.867920,637.426453 579.393188,636.873108 
z"/>
<path fill="#CC5592" opacity="1.000000" stroke="none" 
	d="
M522.439941,742.206787 
	C522.731995,742.451782 522.864868,742.887573 522.964233,743.666199 
	C522.714111,743.471863 522.497375,742.934692 522.439941,742.206787 
z"/>
<path fill="#CC5592" opacity="1.000000" stroke="none" 
	d="
M551.259277,702.820679 
	C551.154236,702.463257 551.272400,701.937500 551.599854,701.240601 
	C551.700256,701.597107 551.591431,702.124695 551.259277,702.820679 
z"/>
<path fill="#C84980" opacity="1.000000" stroke="none" 
	d="
M452.211731,631.940369 
	C452.105255,631.678528 452.276825,631.369690 452.717468,631.003052 
	C452.820923,631.261292 452.655334,631.577271 452.211731,631.940369 
z"/>
<path fill="#C84980" opacity="1.000000" stroke="none" 
	d="
M451.206421,632.929565 
	C451.113708,632.689209 451.288391,632.381287 451.727631,632.004028 
	C451.819397,632.243774 451.646606,632.552917 451.206421,632.929565 
z"/>
<path fill="#C84980" opacity="1.000000" stroke="none" 
	d="
M450.201355,633.921509 
	C450.108917,633.678284 450.285065,633.374878 450.729523,633.005615 
	C450.821838,633.247009 450.645905,633.554199 450.201355,633.921509 
z"/>
<path fill="#C84980" opacity="1.000000" stroke="none" 
	d="
M578.446838,635.895508 
	C578.778320,635.706543 579.026550,635.889465 579.301880,636.376099 
	C579.071716,636.454834 578.749939,636.317444 578.446838,635.895508 
z"/>
<path fill="#DE0D79" opacity="1.000000" stroke="none" 
	d="
M756.947266,467.224915 
	C757.433960,469.039337 757.709290,470.617706 757.992310,472.598053 
	C755.123840,474.254547 752.300964,475.654053 749.360657,476.733917 
	C742.915955,479.100769 741.754700,482.511719 745.896301,487.578400 
	C745.002441,492.837616 735.100952,488.478516 737.172729,497.648193 
	C734.397766,496.588104 731.925415,496.383759 731.049194,495.094604 
	C730.221558,493.876862 730.536621,491.262878 731.279785,489.707947 
	C733.996094,484.025024 730.396362,474.700928 724.290771,473.429535 
	C722.367188,473.028961 720.025269,474.637360 718.591614,475.096619 
	C715.820312,474.893555 713.321533,474.252716 711.016174,474.673035 
	C708.806824,475.075897 706.866455,476.790070 704.670044,477.503845 
	C703.702393,477.818359 702.393738,477.083527 701.239868,476.825104 
	C701.645996,475.663574 701.708374,473.878693 702.510986,473.436188 
	C711.207336,468.641418 719.979492,463.843964 730.375122,468.539825 
	C730.961609,468.804779 731.677795,469.020294 732.294617,468.943878 
	C739.090881,468.101532 745.879517,467.196655 752.933960,465.948181 
	C754.377075,466.054718 755.556519,466.521820 756.947266,467.224915 
z"/>
<path fill="#DE0D79" opacity="1.000000" stroke="none" 
	d="
M757.593262,480.000977 
	C757.997742,482.699951 757.997864,485.399933 757.996582,488.549805 
	C754.551514,489.048157 753.036743,487.295715 752.981384,483.910034 
	C752.932556,480.921814 754.404541,479.816498 757.593262,480.000977 
z"/>
<path fill="#FDFCFD" opacity="1.000000" stroke="none" 
	d="
M135.042969,904.837158 
	C148.355453,904.331848 159.992599,906.957825 168.923660,917.129395 
	C174.393036,923.358398 177.168579,930.723022 178.338852,938.753540 
	C179.869629,949.257935 179.555008,959.692688 175.631180,969.689453 
	C169.367783,985.646606 156.501694,991.936951 140.365524,992.804504 
	C134.243271,993.133728 128.073761,992.688293 121.930290,992.469421 
	C119.252686,992.374023 117.998634,991.181641 118.021080,988.070862 
	C118.185654,965.263123 118.011230,942.452881 118.194359,919.645386 
	C118.289246,907.828369 121.438545,904.929016 133.056824,904.824402 
	C133.556244,904.819885 134.055801,904.829895 135.042969,904.837158 
z"/>
<path fill="#FDFCFD" opacity="1.000000" stroke="none" 
	d="
M387.947632,1010.936279 
	C387.983185,997.401550 389.175018,984.600830 394.880035,972.550171 
	C400.183350,961.348022 411.822937,953.840454 424.286713,955.261047 
	C437.237854,956.737061 447.356506,963.158752 451.424316,976.770508 
	C451.983673,978.642334 452.148193,980.691833 452.153961,982.660095 
	C452.206024,1000.466064 452.220337,1018.272461 452.167206,1036.078491 
	C452.129730,1048.633057 442.723236,1060.890869 431.015167,1063.819946 
	C416.583984,1067.430298 403.514832,1062.272827 396.631378,1050.384521 
	C391.859467,1042.142944 390.038544,1033.075684 388.945770,1023.802673 
	C388.461578,1019.693909 388.271240,1015.550476 387.947632,1010.936279 
z"/>
<path fill="#FCF9FB" opacity="1.000000" stroke="none" 
	d="
M865.437134,1017.408875 
	C875.717957,1008.857910 888.014648,1006.522766 900.236389,1004.008240 
	C902.164185,1003.611633 904.126587,1003.382935 907.339844,1002.877258 
	C906.693787,1016.085571 907.230896,1028.980591 905.154541,1041.440063 
	C902.624390,1056.622314 887.088928,1064.992554 872.358704,1060.840576 
	C862.858521,1058.162964 856.934143,1049.245483 857.367188,1037.561401 
	C857.643311,1030.111938 859.483826,1023.075684 865.437134,1017.408875 
z"/>
<path fill="#FDFCFD" opacity="1.000000" stroke="none" 
	d="
M271.299744,955.970947 
	C289.909393,951.578613 303.345001,958.786682 309.281616,976.530701 
	C313.880829,990.277466 314.562439,1004.461914 313.489899,1018.898804 
	C312.684814,1029.735596 311.936005,1040.441895 307.429016,1050.536987 
	C302.737213,1061.046143 294.488068,1066.494385 283.250061,1066.872070 
	C271.336456,1067.272339 261.378143,1063.226074 255.395996,1052.074341 
	C250.657883,1043.241699 248.515350,1033.636719 248.169159,1023.794495 
	C247.579361,1007.026550 246.580872,990.150818 252.792770,973.960266 
	C256.147369,965.216858 261.710632,958.843689 271.299744,955.970947 
z"/>
<path fill="#FDFCFD" opacity="1.000000" stroke="none" 
	d="
M537.129517,1038.697144 
	C533.135559,1019.163818 533.348755,1000.023132 537.074097,980.922302 
	C541.596008,957.737244 563.008301,947.669556 582.751160,959.273254 
	C589.909973,963.480896 593.343506,970.408508 595.307861,977.815308 
	C601.474182,1001.065369 601.789307,1024.399414 594.289368,1047.478516 
	C590.457397,1059.270386 581.584534,1066.244751 570.350220,1066.963013 
	C557.158875,1067.806396 546.502869,1061.885620 541.133301,1050.380127 
	C539.459290,1046.793091 538.496216,1042.874390 537.129517,1038.697144 
z"/>
<path fill="#FCF9FB" opacity="1.000000" stroke="none" 
	d="
M1123.016235,952.709778 
	C1136.040039,950.444336 1145.887573,955.743958 1150.784180,967.357361 
	C1154.414307,975.966675 1155.807739,988.781067 1153.678345,994.710693 
	C1136.152344,994.710693 1118.565308,994.710693 1100.987793,994.710693 
	C1100.405518,975.506409 1107.819336,955.527649 1123.016235,952.709778 
z"/>
<path fill="#FBFBFC" opacity="1.000000" stroke="none" 
	d="
M842.089966,465.172241 
	C838.839233,461.662354 835.588562,458.152466 832.221313,454.335632 
	C834.358948,453.676910 836.610474,453.042725 838.867798,453.021332 
	C849.600464,452.919342 860.334717,452.984222 871.527405,453.091980 
	C870.164551,457.059113 868.342651,460.923950 865.753113,464.986572 
	C857.353638,465.180298 849.721802,465.176270 842.089966,465.172241 
z"/>
<path fill="#DE0E77" opacity="1.000000" stroke="none" 
	d="
M759.587219,518.091797 
	C760.077759,533.021545 760.173767,548.045227 760.239380,563.537476 
	C759.477234,563.117310 758.115417,562.233704 758.108093,561.338989 
	C757.995422,547.456543 758.046631,533.572632 758.127258,519.689392 
	C758.130188,519.186096 758.821899,518.686768 759.587219,518.091797 
z"/>
<path fill="#E10C78" opacity="1.000000" stroke="none" 
	d="
M841.921387,465.417511 
	C849.721802,465.176270 857.353638,465.180298 865.449097,465.193848 
	C866.264893,466.101105 866.987244,467.030579 866.913391,467.891754 
	C865.906311,479.634308 871.888611,488.407837 878.580200,497.174530 
	C885.326782,506.013397 891.366150,515.393250 897.664856,524.570801 
	C898.257324,525.434082 898.487061,526.546448 897.929321,528.160339 
	C896.992615,526.982910 895.983093,525.855713 895.131958,524.619446 
	C891.552063,519.419495 887.713257,514.366577 884.527405,508.932587 
	C875.182800,492.994019 860.776001,482.291382 846.557068,471.319977 
	C844.641235,469.841675 843.339050,467.568085 841.921387,465.417511 
z"/>
<path fill="#FD82B5" opacity="1.000000" stroke="none" 
	d="
M832.280334,479.221069 
	C830.379639,480.667816 828.736267,481.858124 827.627869,482.660950 
	C826.328796,479.983032 825.279968,477.821075 824.231201,475.659119 
	C824.404907,475.699799 824.578674,475.740479 824.752380,475.781189 
	C824.027039,471.078949 823.301758,466.376740 822.635925,462.060455 
	C827.651489,463.990356 832.855408,465.992737 838.434509,468.139496 
	C837.258179,471.759216 837.344238,476.580566 832.280334,479.221069 
z"/>
<path fill="#FD82B5" opacity="1.000000" stroke="none" 
	d="
M827.354553,459.075806 
	C828.094360,458.986023 828.817627,459.199219 829.540833,459.412415 
	C829.399780,459.801300 829.258667,460.190155 829.117554,460.579010 
	C828.524353,460.178925 827.931152,459.778839 827.354553,459.075806 
z"/>
<path fill="#E10C78" opacity="1.000000" stroke="none" 
	d="
M901.614441,533.308411 
	C900.908325,532.450500 900.155151,531.625305 899.521484,530.716858 
	C899.300171,530.399536 899.373352,529.876892 900.004639,528.994812 
	C900.698669,530.034790 901.392639,531.074829 902.010559,532.582031 
	C901.934448,533.049316 901.614441,533.308411 901.614441,533.308411 
z"/>
<path fill="#E10C78" opacity="1.000000" stroke="none" 
	d="
M903.776733,536.262573 
	C903.013672,535.592651 902.398010,534.760254 901.698364,533.618164 
	C901.614441,533.308411 901.934448,533.049316 902.090942,532.912231 
	C902.856323,533.581726 903.465271,534.388245 904.152527,535.490723 
	C904.230835,535.786560 903.924072,536.100098 903.776733,536.262573 
z"/>
</svg>